<svg width="160" height="60" viewBox="0 0 160 60" fill="none" xmlns="http://www.w3.org/2000/svg">
<path d="M29.1 12.9C29 13 28.8 13.1 28.7 13.1C28.8 13.3 28.9 13.6 28.9 13.9C28.9 14.2 28.9 14.7 28.7 15C28.9 15 29.1 15 29.1 15C29.1 15 29.3 15 29.5 15C29.4 14.7 29.3 14.2 29.3 13.9C29.3 13.6 29.4 13.3 29.5 13.1C29.4 13.1 29.2 13 29.1 12.9Z" fill="black"/>
<path d="M27.2 11.5999C27.6 11.7999 27.9 11.9999 28.2 12.4999C28.1 12.4999 28 12.6 27.8 12.7C26.7 13.3 26.9 15.1999 27.9 15.2999C28 15.2999 28.2 15.3 28.3 15.2C28.4 15 28.5 14.7 28.6 14.4C28.5 14.5 28.4 14.5999 28.3 14.5999C28.1 14.5999 27.9 14.2999 27.9 13.9999C27.9 13.6999 28.1 13.4 28.3 13.4C28.5 13.4 28.6 13.5 28.7 13.7C28.7 13.4 28.6 13.1 28.5 12.9V12.7999H28.6C29 12.8999 29.2 12.5999 29.2 12.4999C29.2 12.4999 29.2 12.4999 29.3 12.4999H29.4C29.4 12.4999 29.6 12.8999 30 12.7999H30.1V12.9C30 13.1 29.9 13.4 29.9 13.7C30 13.5 30.1 13.4 30.3 13.4C30.5 13.4 30.7 13.6999 30.7 13.9999C30.7 14.2999 30.5 14.5999 30.3 14.5999C30.2 14.5999 30 14.5 30 14.4C30 14.7 30.1 14.9 30.3 15.2C30.4 15.2 30.6 15.1999 30.7 15.2999C31.7 15.2999 31.9 13.3 30.8 12.7C30.7 12.6 30.6 12.5999 30.4 12.4999C30.6 12.0999 31 11.8999 31.4 11.5999C31.8 11.2999 32.2 11.0999 32.5 10.5999V10.4999H32.4C32.1 10.8999 31.8 11.1 31.4 11.4C31 11.6 30.6 11.9 30.3 12.4C30 12.3 29.7 12.2 29.6 11.9C29.4 12.1 29.2 12.2 28.9 12.4C28.6 11.9 28.2 11.7 27.8 11.4C27.4 11.2 27 10.9999 26.8 10.4999C26.8 10.4999 26.7 10.3999 26.7 10.4999C26.7 10.4999 26.6 10.5999 26.7 10.5999C26.4 11.0999 26.7 11.2999 27.2 11.5999Z" fill="black"/>
<path d="M37.4001 19.7C37.5001 19.6 37.5001 19.2 37.3001 19C37.0001 18.7 36.7001 18.7 36.7001 18.7C36.7001 18.7 36.8001 18.5 36.6001 18.3C36.4001 18.1 35.0001 17.3 34.7001 17.2C34.3001 17.1 33.1001 16.7 32.8001 16.6C32.7001 16.6 32.5001 16.5 32.2001 16.5C32.1001 16.4 31.9001 16.3 31.8001 16.1C32.6001 15.4 33.2001 14.6 33.2001 14.4C33.2001 14.1 33.1001 14 33.1001 14C33.1001 14 33.3001 13.9 33.3001 13.7C33.2001 13.3 33.1001 12.5 33.1001 12.5C33.1001 12.5 33.3001 12.4 33.6001 12.4C33.5001 12.2 33.4001 12.1 33.2001 12.2C33.1001 12.2 33.0001 12.3 32.9001 12.3C32.8001 12.4 32.8001 12.6 32.8001 12.7C32.8001 12.8 32.8001 13.4 32.7001 13.6C32.6001 13.9 32.6001 14.1 32.7001 14.2C32.7001 14.3 31.6001 15.2 31.1001 15.7C30.7001 15.5 30.2001 15.4 29.5001 15.3H29.1001H29.0001H28.7001C27.9001 15.3 27.5001 15.4 27.1001 15.7C26.6001 15.3 25.6001 14.4 25.5001 14.2C25.6001 14.1 25.6001 13.9 25.5001 13.6C25.4001 13.4 25.4001 12.8 25.4001 12.7C25.4001 12.6 25.4001 12.4 25.3001 12.3C25.2001 12.2 25.1001 12.2 25.0001 12.2C24.9001 12.2 24.7001 12.3 24.6001 12.4C24.9001 12.4 25.1001 12.5 25.1001 12.5C25.1001 12.5 25.1001 13.4 24.9001 13.7C24.8001 13.9 25.1001 14 25.1001 14C25.1001 14 25.0001 14.1 25.0001 14.4C25.0001 14.7 25.6001 15.5 26.4001 16.1C26.3001 16.2 26.2001 16.3 26.0001 16.5C25.7001 16.5 25.5001 16.6 25.4001 16.6C25.0001 16.7 23.9001 17 23.5001 17.2C23.2001 17.3 21.8001 18.1 21.6001 18.3C21.4001 18.5 21.5001 18.7 21.5001 18.7C21.5001 18.7 21.1001 18.8 20.9001 19C20.8001 19.1 20.8001 19.5 20.8001 19.7C20.9001 19.8 21.0001 19.8 21.0001 19.8C21.0001 19.8 20.9001 19.2 21.4001 19.1C21.7001 19.1 21.9001 19.1 21.9001 19.1C21.9001 19.1 22.7001 18.6 22.9001 18.5C23.1001 18.4 23.5001 17.8 23.5001 17.8C23.5001 17.8 23.8001 17.9 24.1001 17.9C24.3001 17.9 24.9001 17.5 25.2001 17.3L25.1001 17.4H26.0001C26.1001 17.4 26.1001 17.4 26.2001 17.4C26.3001 17.4 26.4001 17.4 26.5001 17.4C25.5001 18.5 24.5001 19.1 23.6001 19.7C22.6001 20.3 21.7001 20.9 20.8001 22C19.9001 23 19.6001 23.7 19.8001 24.2C20.0001 24.5 20.3001 24.7 21.0001 24.6C22.8001 24.5 23.9001 24.2 24.3001 23.6C24.3001 23.8 24.2001 24 24.2001 24.3C23.7001 25.1 23.5001 25.7 23.3001 26.3C23.2001 26.6 23.3001 26.8 23.5001 26.9C23.3001 27.3 23.4001 27.7 23.1001 27.8C22.5001 28.1 22.8001 28.3 22.8001 28.3L23.4001 28.2L23.9001 27C23.9001 27 24.0001 27 24.1001 27C24.4001 26.8 24.2001 25.9 24.8001 24.7C25.0001 24.8 25.1001 24.6 25.1001 24.1C25.1001 23.9 25.2001 23.6 25.2001 23.4C25.6001 23.3 25.9001 23.1 26.1001 22.9C26.1001 24.8 26.7001 26.3 27.2001 27.1C27.8001 28.1 28.5001 28.8 28.9001 28.8C29.4001 28.8 30.1001 28.1 30.7001 27.1C31.2001 26.2 31.8001 24.8 31.8001 22.9C32.0001 23.1 32.4001 23.2 32.7001 23.3C32.7001 23.6 32.8001 23.8 32.8001 24C32.9001 24.6 32.9001 24.7 33.1001 24.6C33.7001 25.8 33.4001 26.6 33.8001 26.9C33.9001 27 34.0001 26.9 34.0001 26.9L34.5001 28.1L35.1001 28.2C35.1001 28.2 35.4001 28 34.8001 27.7C34.6001 27.6 34.6001 27.2 34.4001 26.8C34.6001 26.6 34.7001 26.5 34.6001 26.2C34.5001 25.6 34.2001 25 33.7001 24.2C33.7001 24 33.7001 23.7 33.6001 23.5C34.0001 24.1 35.1001 24.5 36.9001 24.5C37.5001 24.5 37.9001 24.4 38.1001 24.1C38.3001 23.6 38.0001 22.9 37.1001 21.9C36.2001 20.8 35.3001 20.2 34.3001 19.6C33.4001 19 32.4001 18.4 31.4001 17.3C31.6001 17.3 31.8001 17.3 31.9001 17.3H32.8001H33.0001C33.4001 17.6 33.9001 17.9 34.1001 17.9C34.4001 17.9 34.7001 17.8 34.7001 17.8C34.7001 17.8 35.1001 18.4 35.3001 18.5C35.5001 18.6 36.3001 19.1 36.3001 19.1C36.3001 19.1 36.5001 19.1 36.8001 19.1C37.3001 19.2 37.2001 19.8 37.2001 19.8C37.2001 19.8 37.4001 19.9 37.4001 19.7ZM29.1001 21.3C29.7001 21.3 30.2001 21.3 30.7001 21.4H30.9001C30.9001 21.5 31.0001 21.5 31.0001 21.6C31.1001 21.8 31.2001 22 31.3001 22.2C29.8001 22.4 28.4001 22.4 26.9001 22.2C27.0001 22 27.1001 21.8 27.2001 21.6C27.2001 21.5 27.3001 21.5 27.3001 21.4H27.5001C28.0001 21.3 28.5001 21.3 29.1001 21.3ZM26.7001 23.6C26.7001 23.3 26.7001 23.1 26.7001 22.8C28.2001 23.1 30.2001 23.1 31.8001 22.8C31.8001 23.1 31.8001 23.4 31.8001 23.6C30.0001 23.9 28.2001 23.9 26.7001 23.6ZM31.5001 24.4C31.4001 24.7 31.4001 24.9 31.3001 25.2C29.9001 25.4 28.3001 25.4 26.9001 25.2C26.8001 24.9 26.8001 24.7 26.7001 24.4C28.2001 24.6 30.0001 24.6 31.5001 24.4ZM21.9001 24.4C22.0001 23.8 22.6001 22.6 23.7001 21.3C23.7001 21.3 23.7001 21.3 23.7001 21.2C23.7001 21.2 23.7001 21.2 23.6001 21.2C22.2001 22.4 21.6001 23.8 21.5001 24.4C21.4001 24.4 21.2001 24.4 21.0001 24.4C20.7001 24.4 20.2001 24.4 20.1001 24.1C20.1001 24.1 20.1001 24 20.1001 23.9C20.1001 23.6 20.3001 23.1 21.1001 22.2C22.0001 21.2 23.0001 20.6 23.9001 20C25.0001 19.3 26.0001 18.8 27.2001 17.3C27.2001 17.5 27.2001 17.8 27.2001 17.9C27.2001 18.2 27.2001 18.4 27.2001 18.7C27.2001 19 27.2001 19.2 27.2001 19.5C27.2001 20.1 27.1001 20.7 26.8001 21.4C26.4001 22.3 26.0001 23 24.4001 23.2C24.7001 22.1 25.3001 20.8 25.9001 20.1C25.9001 20.1 25.9001 20.1 25.9001 20C25.9001 20 25.9001 20 25.8001 20C25.0001 20.8 24.4001 22.1 24.1001 23.2C24.1001 23.9 23.3001 24.3 21.9001 24.4ZM29.1001 28.5C29.0001 28.5 28.5001 28.2 28.0001 27.5C28.7001 27.5 29.6001 27.5 30.3001 27.5C29.7001 28.3 29.3001 28.5 29.1001 28.5ZM30.7001 26.7C29.6001 26.8 28.6001 26.8 27.5001 26.7C27.4001 26.5 27.3001 26.2 27.1001 25.9C28.3001 26 29.8001 26 31.0001 25.9C31.0001 26.2 30.9001 26.5 30.7001 26.7ZM34.3001 20.1C35.2001 20.7 36.2001 21.2 37.1001 22.3C37.9001 23.2 38.1001 23.7 38.1001 24C38.1001 24.1 38.1001 24.1 38.1001 24.2C38.0001 24.5 37.5001 24.5 37.2001 24.5C37.0001 24.5 36.9001 24.5 36.7001 24.5C36.5001 23.9 36.0001 22.5 34.6001 21.3C34.6001 21.3 34.6001 21.3 34.5001 21.3C34.5001 21.3 34.5001 21.3 34.5001 21.4C35.7001 22.7 36.2001 23.9 36.3001 24.5C34.9001 24.4 34.1001 24 33.9001 23.5C33.6001 22.4 32.9001 21.1 32.2001 20.3C32.2001 20.3 32.2001 20.3 32.1001 20.3C32.1001 20.3 32.1001 20.3 32.1001 20.4C32.7001 21.1 33.3001 22.4 33.6001 23.5C32.1001 23.3 31.6001 22.6 31.2001 21.7C30.9001 21 30.8001 20.4 30.8001 19.8C30.8001 19.5 30.8001 19.3 30.8001 19C30.8001 18.7 30.8001 18.5 30.8001 18.2C30.8001 18.1 30.8001 17.8 30.8001 17.6C32.2001 18.9 33.2001 19.4 34.3001 20.1Z" fill="black"/>
<path d="M29.1 8.59998C22.5 8.59998 17 14 17 20.7C17 27.4 22.4 32.8 29.1 32.8C35.8 32.8 41.2 27.4 41.2 20.7C41.3 14 35.8 8.59998 29.1 8.59998ZM29.1 32.4C22.7 32.4 17.4 27.2 17.4 20.7C17.4 14.3 22.6 8.99998 29.1 8.99998C35.5 8.99998 40.8 14.2 40.8 20.7C40.8 27.2 35.6 32.4 29.1 32.4Z" fill="black"/>
<path d="M28.9 48.7C29 48.8 29 48.8 29.1 48.8C29.2 48.8 29.3 48.8 29.3 48.7L30.6 47.4C30.7 47.3 30.7 47.1 30.6 47L29.3 45.7C29.2 45.6 29.2 45.6 29.1 45.6C29 45.6 28.9 45.6 28.9 45.7L27.6 47C27.5 47.1 27.5 47.3 27.6 47.4L28.9 48.7ZM29.1 45.9L30.4 47.2L29.1 48.5L27.8 47.2L29.1 45.9Z" fill="black"/>
<path d="M20.7 9.99995C20.3 10.3 19.9 10.7 19.5 11C18.6 10.3 18.1 9.89995 18.1 9.89995C18 9.89995 18 9.79995 17.9 9.79995C17.8 9.79995 17.7 9.79995 17.6 9.89995L16.9 10.7C16.8 10.8 16.8 11.1 16.9 11.2C16.9 11.2 17.4 11.7 18.2 12.5C17.9 12.9 17.6 13.3999 17.3 13.7999C16.3 13.3999 15.6 13.0999 15.6 13.0999H15.5C15.4 13.0999 15.2 13.1999 15.2 13.2999L14.7 14.2999C14.6 14.4999 14.7 14.6999 14.8 14.7999C14.8 14.7999 15.4 15.1 16.4 15.7C16.2 16.2 16 16.7 15.9 17.2C14.8 17 14.1 17 14.1 17C14.1 17 14.1 17 14 17C13.8 17 13.7 17.0999 13.7 17.2999L13.5 18.4C13.5 18.6 13.6 18.7999 13.8 18.7999C13.8 18.7999 14.5 19 15.6 19.2C15.5 19.7 15.5 20.2 15.5 20.7C14.4 20.8 13.7 20.9 13.7 20.9C13.5 20.9 13.4 21.1 13.4 21.3L13.5 22.4C13.5 22.6 13.7 22.6999 13.8 22.6999C13.8 22.6999 14.5 22.6999 15.6 22.6999C15.7 23.1999 15.8 23.8 15.9 24.3C14.8 24.7 14.2 25 14.2 25C14.1 25 14 25.2 14 25.4L14.4 26.4C14.5 26.5 14.6 26.5999 14.7 26.5999H14.8C14.8 26.5999 15.5 26.3999 16.6 26.0999C16.8 26.5999 17 27 17.3 27.5C16.4 28.2 15.9 28.5999 15.8 28.5999C15.7 28.5999 15.7 28.7 15.7 28.8C15.7 28.9 15.7 28.9999 15.8 29.0999L16.4 30C16.5 30.1 16.6 30.1999 16.7 30.1999C16.8 30.1999 16.8 30.1999 16.9 30.0999C16.9 30.0999 17.5 29.6999 18.5 29.1999C18.8 29.5999 19.2 30 19.5 30.4C18.8 31.3 18.4 31.8 18.4 31.8C18.3 31.9 18.3 32.2 18.4 32.3L19.2 33C19.3 33.1 19.4 33.0999 19.4 33.0999C19.5 33.0999 19.6 33.1 19.7 33C19.7 33 20.2 32.4999 21 31.6999C21.4 31.9999 21.9 32.2999 22.3 32.5999C21.9 33.5999 21.6 34.3 21.6 34.3C21.6 34.4 21.6 34.4999 21.6 34.5999C21.6 34.6999 21.7 34.8 21.8 34.8L22.8 35.3C22.9 35.3 22.9 35.3 23 35.3C23.1 35.3 23.3 35.1999 23.3 35.0999C23.3 35.0999 23.6 34.5 24.2 33.5C24.7 33.7 25.2 33.9 25.7 34C25.5 35.1 25.5 35.8 25.5 35.8C25.5 35.9 25.5 36 25.6 36C25.7 36.1 25.7 36.0999 25.8 36.1999L26.9 36.4C26.9 36.4 26.9 36.4 27 36.4C27.2 36.4 27.3 36.2999 27.3 36.0999C27.3 36.0999 27.5 35.4 27.7 34.3C27.9 34.3 28 34.3 28.2 34.3V36.9C28.2 37.4 26.4 37.5999 25.2 37.6999L24.7 37.8C24 37.9 23.5 38.1 23.2 38.5C22.9 38.8 23 39.1999 23 39.1999H35.5C35.5 39.1999 35.6 38.8 35.3 38.5C35 38.1 34.5 37.9 33.8 37.8L33.3 37.6999C32.1 37.5999 30.3 37.4 30.3 36.9V36.6999H29.8C29.5 36.6999 29.2 36.4999 29.2 36.0999C29.2 35.9999 29.1 35.4 29 34.3C29.1 34.3 29.2 34.3 29.3 34.3C29.4 35.4 29.5 36.0999 29.5 36.0999C29.5 36.2999 29.7 36.4 29.9 36.4L31 36.3C31.1 36.3 31.2 36.1999 31.3 36.1999C31.4 36.0999 31.4 36.1 31.4 36C31.4 36 31.4 35.2999 31.4 34.1999C31.9 34.0999 32.5 34 33 33.9C33.4 35 33.7 35.5999 33.7 35.5999C33.7 35.6999 33.9 35.8 34 35.8H34.1L35.1 35.4C35.2 35.4 35.3 35.2999 35.3 35.1999C35.3 35.0999 35.3 35 35.3 34.9C35.3 34.9 35.1 34.1999 34.8 33.0999C35.3 32.8999 35.7 32.7 36.2 32.4C36.6 33.5 37 34 37 34C37.1 34.1 37.2 34.0999 37.3 34.0999C37.4 34.0999 37.4 34.1 37.5 34L38.4 33.4C38.5 33.3 38.5 33.2999 38.6 33.1999C38.6 33.0999 38.6 33 38.6 33C38.6 33 38.2 32.4 37.7 31.4C38.1 31.1 38.5 30.7 38.9 30.4C39.8 31.1 40.3 31.5 40.3 31.5C40.4 31.6 40.4 31.5999 40.5 31.5999C40.6 31.5999 40.7 31.6 40.8 31.5L41.5 30.6999C41.6 30.5999 41.6 30.5 41.6 30.4C41.6 30.3 41.6 30.1999 41.5 30.1999C41.5 30.1999 41 29.7 40.2 28.9C40.5 28.5 40.8 27.9999 41.1 27.5999C42.1 27.9999 42.8 28.3 42.8 28.3H42.9C43 28.3 43.2 28.1999 43.2 28.0999L43.7 27.0999C43.8 26.8999 43.7 26.6999 43.6 26.5999C43.6 26.5999 43 26.2999 42 25.6999C42.2 25.1999 42.4 24.6999 42.5 24.1999C43.6 24.3999 44.3 24.4 44.3 24.4C44.3 24.4 44.3 24.4 44.4 24.4C44.6 24.4 44.7 24.2999 44.7 24.0999L44.9 23C44.9 22.9 44.9 22.7999 44.8 22.6999C44.8 22.5999 44.7 22.5999 44.6 22.5999C44.6 22.5999 43.9 22.3999 42.8 22.1999C42.9 21.6999 42.9 21.2 42.9 20.7C44 20.6 44.7 20.5 44.7 20.5C44.9 20.5 45 20.2999 45 20.0999L44.9 19C44.9 18.8 44.7 18.7 44.6 18.7C44.6 18.7 43.9 18.7 42.8 18.7C42.7 18.2 42.6 17.5999 42.5 17.0999C43.6 16.6999 44.2 16.4 44.2 16.4C44.4 16.3 44.5 16.1 44.4 16L44 15C44 14.9 43.8 14.7999 43.7 14.7999H43.6C43.6 14.7999 42.9 14.9999 41.8 15.2999C41.6 14.7999 41.4 14.4 41.1 13.9C42 13.2 42.5 12.7999 42.6 12.7999C42.7 12.7999 42.7 12.6999 42.7 12.5999C42.7 12.4999 42.7 12.3999 42.6 12.2999L42 11.4C41.9 11.3 41.8 11.2 41.7 11.2C41.6 11.2 41.6 11.1999 41.5 11.2999C41.5 11.2999 40.9 11.7 39.9 12.2C39.6 11.8 39.2 11.4 38.9 11C39.6 10.1 40 9.59995 40 9.59995C40.1 9.49995 40.1 9.49995 40.1 9.39995C40.1 9.29995 40 9.19995 40 9.09995L39.2 8.39995C39.1 8.29995 39 8.29995 39 8.29995C38.9 8.29995 38.8 8.29995 38.8 8.39995C38.8 8.39995 38.3 8.89995 37.5 9.69995C37.1 9.39995 36.6 9.09995 36.2 8.79995C36.6 7.79995 36.9 7.09995 36.9 7.09995C36.9 6.99995 36.9 6.89995 36.9 6.79995C36.9 6.69995 36.8 6.59995 36.7 6.59995L35.7 6.09995C35.6 6.09995 35.6 6.09995 35.5 6.09995C35.4 6.09995 35.3 6.19995 35.2 6.29995C35.2 6.29995 34.9 6.89995 34.3 7.89995C33.8 7.69995 33.3 7.49995 32.8 7.39995C33 6.29995 33 5.59995 33 5.59995C33 5.49995 33 5.39995 32.9 5.29995C32.8 5.19995 32.8 5.19995 32.7 5.19995L31.6 4.99995C31.6 4.99995 31.6 4.99995 31.5 4.99995C31.3 4.99995 31.2 5.09995 31.2 5.29995C31.2 5.29995 31 5.99995 30.8 7.09995C30.6 7.09995 30.5 7.09995 30.3 7.09995V4.49995C30.3 3.99995 32.1 3.79995 33.3 3.69995L33.8 3.59995C34.5 3.49995 35 3.29995 35.3 2.89995C35.6 2.59995 35.5 2.19995 35.5 2.19995H22.9C22.9 2.19995 22.8 2.59995 23.1 2.89995C23.4 3.29995 23.9 3.49995 24.6 3.59995L25.1 3.69995C26.3 3.79995 28.1 3.99995 28.1 4.49995V4.69995H28.6C28.9 4.69995 29.2 4.89995 29.2 5.29995C29.2 5.39995 29.3 6.09995 29.4 7.09995C29.3 7.09995 29.2 7.09995 29.1 7.09995C29 5.99995 28.9 5.29995 28.9 5.29995C28.9 5.09995 28.7 4.99995 28.5 4.99995H27.5C27.4 4.99995 27.3 5.09995 27.2 5.09995C27.1 5.19995 27.1 5.19995 27.1 5.29995C27.1 5.29995 27.1 5.99995 27.1 7.09995C26.6 7.19995 26.1 7.29995 25.5 7.39995C25.1 6.29995 24.8 5.69995 24.8 5.69995C24.8 5.59995 24.6 5.49995 24.5 5.49995H24.4L23.4 5.89995C23.2 5.99995 23.1 6.19995 23.2 6.29995C23.2 6.29995 23.4 6.99995 23.7 8.09995C23.2 8.29995 22.8 8.49995 22.3 8.79995C21.6 7.89995 21.2 7.39995 21.2 7.29995C21.1 7.19995 21 7.19995 20.9 7.19995C20.8 7.19995 20.8 7.19995 20.7 7.29995L19.8 7.89995C19.7 7.99995 19.7 7.99995 19.6 8.09995C19.6 8.19995 19.6 8.29995 19.6 8.29995C19.7 8.39995 20.1 8.99995 20.7 9.99995ZM29.1 33.5C22.1 33.5 16.3 27.8 16.3 20.7C16.3 13.6 22.1 7.99995 29.1 7.99995C36.1 7.99995 41.9 13.6999 41.9 20.7999C41.9 27.8999 36.2 33.5 29.1 33.5Z" fill="black"/>
<path d="M16.8 49.1C16.7 49.1 16.6 49.1 16.6 49.2C16.5 48.5 16.3 47.9 16.2 47.3C16.3 47.3 16.4 47.2 16.5 47.2C16.5 47.2 16.5 47.1 16.5 47C16.1 47.1 15.8 47.2 15.5 47.3C15.5 47.4 15.5 47.4 15.5 47.5L15.8 47.4C15.9 48 16 48.5 16.2 49.3C16.1 49.3 16.1 49.4 16 49.4C16 49.4 16 49.5 16 49.6C16.4 49.5 16.7 49.4 17 49.3C16.9 49.3 16.9 49.2 16.8 49.1Z" fill="black"/>
<path d="M18.7 47.6V47.5C18.6 47.1 18.5 46.9 18.4 46.8C18.3 46.7 18.1 46.7 18 46.7C17.9 46.7 17.9 46.7 17.8 46.7C17.5 46.7 17.3 46.9 17.2 47.1C17 47.2 17 47.4 17 47.7C17 47.8 17 47.9 17 48L17.1 48.3C17.1 48.4 17.2 48.6 17.2 48.8C17.3 49.1 17.6 49.1 17.8 49.1C17.9 49.1 17.9 49.1 18 49.1C18.3 49 18.5 48.9 18.6 48.8C18.7 48.6 18.7 48.4 18.7 48.1C18.7 47.9 18.7 47.7 18.7 47.6ZM18 48.7C17.7 48.7 17.7 48.5 17.6 48.3C17.6 48.2 17.6 48.1 17.6 48C17.6 47.8 17.6 47.7 17.5 47.5C17.5 47.4 17.5 47.1 17.8 47.1H17.9C18.1 47.1 18.1 47.3 18.2 47.4C18.2 47.7 18.3 47.9 18.3 48.2C18.3 48.4 18.3 48.6 18 48.7Z" fill="black"/>
<path d="M12.7 48.5C12.8 48.8 13 49.7 13 49.8C13 49.8 13 49.8 12.3 49.1C12.2 49 12.1 48.9 12 48.8C11.9 48.8 11.9 48.8 11.8 48.9C11.7 48.9 11.6 49 11.5 49C11.7 49.8 11.9 50.5 12 51.2C12.1 51.1 12.3 51.1 12.4 51C12.4 50.9 12 49.6 12 49.6C12 49.6 12 49.6 12.5 50.1C12.8 50.4 13 50.6 13.1 50.7C13.2 50.7 13.3 50.6 13.5 50.5C13.3 49.7 13.2 49 13 48.3C13.1 48.3 12.8 48.5 12.7 48.5Z" fill="black"/>
<path d="M15.2 48.8C15.1 48.7 14.9 48.7 14.8 48.6H14.5C14.3 48.6 14.2 48.6 14.2 48.4C14.2 48.4 14.2 48.2 14.3 48.1H14.4H14.5C14.6 48.1 14.7 48.2 14.8 48.3L15.1 48C14.9 47.8 14.8 47.8 14.6 47.8C14.5 47.8 14.4 47.8 14.3 47.8C14.2 47.8 14.1 47.9 14.1 47.9C13.8 48.1 13.7 48.3 13.7 48.6C13.8 49 14.1 49.1 14.4 49.1C14.8 49.1 14.9 49.2 14.9 49.3C14.9 49.5 14.8 49.6 14.7 49.6H14.6H14.5C14.4 49.6 14.2 49.5 14.2 49.4L13.9 49.7C14.1 49.9 14.2 50 14.4 50C14.5 50 14.6 50 14.8 49.9C14.9 49.9 14.9 49.8 15 49.8C15.1 49.8 15.1 49.7 15.2 49.7C15.5 49.4 15.4 49.1 15.4 49C15.4 49 15.3 48.9 15.2 48.8Z" fill="black"/>
<path d="M4.7 52.1C4.6 52.1 4.3 52.2 4.2 52.2C4.3 52.6 4.5 53.1 4.6 53.5L4.7 53.7C4.8 53.9 4.8 54 4.7 54.1C4.6 54.2 4.6 54.2 4.5 54.2H4.4C4.2 54.2 4.1 53.9 4 53.8C3.9 53.3 3.7 52.8 3.5 52.3C3.3 52.3 3.2 52.4 3 52.4C3.2 52.9 3.3 53.5 3.5 53.9C3.6 54.1 3.7 54.4 3.9 54.5C4 54.6 4.1 54.6 4.3 54.6C4.4 54.6 4.5 54.6 4.6 54.6C4.8 54.5 5 54.4 5.1 54.3C5.3 54 5.2 53.7 5.1 53.6C5.1 53.1 4.9 52.6 4.7 52.1Z" fill="black"/>
<path d="M6.30008 51.9C6.40008 51.9 6.70008 51.7 6.80008 51.7L6.70007 51.3C6.20007 51.5 5.70007 51.7 5.20007 51.9C5.20007 51.9 5.30007 52.2 5.30007 52.3C5.40007 52.3 5.50007 52.2 5.60007 52.2C5.70007 52.2 5.80007 52.1 5.90007 52.1C6.10007 52.7 6.30007 53.3 6.40007 53.9C6.50007 53.9 6.80008 53.7 6.80008 53.7C6.60008 53.1 6.50008 52.5 6.30008 51.9Z" fill="black"/>
<path d="M9.29996 50.6C9.29996 50.5 9.19995 50.3 9.19995 50.2C8.59995 50.5 8.09995 50.7 7.69995 50.9C7.69995 51 7.79996 51.3 7.79996 51.3H7.89996C7.99996 51.2 8.19996 51.2 8.39996 51.1C8.49996 51.6 8.69996 52.2 8.89996 52.9C8.99996 52.8 9.29996 52.7 9.29996 52.7C9.09996 52.1 8.99996 51.5 8.79996 50.9C8.79996 50.8 9.19996 50.7 9.29996 50.6Z" fill="black"/>
<path d="M11.6 51.1C11.3 51.3 10.6 51.6 10.6 51.6L10.5 51.4C10.5 51.3 10.4 51.2 10.4 51.1C10.5 51.1 10.9 50.8 11 50.8C11 50.8 10.9 50.5 10.9 50.4C10.8 50.5 10.2 50.7 10.2 50.7V50.6C10.2 50.5 10.2 50.5 10.1 50.4V50.2H10.2C10.5 50.1 10.8 49.9 11.1 49.8V49.6C11.1 49.5 11.1 49.4 11.1 49.4C10.9 49.5 10.6 49.6 10.4 49.7C10.2 49.8 9.99995 49.9 9.69995 50C9.89995 50.9 10.1 51.6 10.3 52.2L10.7 52C11 51.8 11.4 51.7 11.7 51.5V51.4C11.6 51.3 11.6 51.2 11.6 51.1Z" fill="black"/>
<path d="M45.5 48.5C45.2 48.3 44.5 48.1 44.4 48L44.3 48.2C44.4 48.2 44.6 48.3 44.6 48.3L44.1 50.2L43.8 50.1L43.7 50.3C44 50.4 44.4 50.6 44.8 50.7L44.9 50.5C44.8 50.5 44.6 50.4 44.6 50.4C44.8 49.6 45 49 45.1 48.5C45.2 48.5 45.4 48.6 45.4 48.6L45.5 48.5Z" fill="black"/>
<path d="M50 50.6C49.8 50.9 49 52 49 52C49 52 49 50.6 49.1 50.2C49.1 50.2 48.7 50 48.6 49.9C48.6 50 48.6 51.8 48.6 52.5C48.6 52.5 49 52.7 49.1 52.8L50.6 50.9C50.3 50.8 50 50.7 50 50.6Z" fill="black"/>
<path d="M51.1 52.1L51.3 51.5L51.6 51.6L51.7 51.4L50.7 51L50.6 51.2L50.9 51.3L50.2 53.2L49.9 53.1C49.9 53.1 49.9 53.2 49.8 53.3C50.1 53.4 50.4 53.6 50.8 53.7L50.9 53.5L50.6 53.4C50.8 52.9 51 52.5 51.1 52.1Z" fill="black"/>
<path d="M46.6 49C46.5 48.9 46.3 48.9 46.2 48.9C45.9 48.9 45.7 49.1 45.6 49.5L45.4 50.2C45.3 50.7 45.4 50.8 45.4 51C45.5 51.2 45.7 51.3 45.9 51.4C46 51.4 46.1 51.5 46.2 51.5C46.3 51.5 46.3 51.5 46.4 51.5C46.6 51.4 46.7 51.3 46.7 51.2C46.7 51.1 46.7 51.1 46.8 51L46.3 50.8C46.2 51 46.1 51.1 46 51.1H45.9C45.6 51 45.7 50.7 45.7 50.6L45.9 49.7C45.9 49.6 46 49.5 46.1 49.5H46.2H46.3C46.4 49.6 46.5 49.7 46.5 50L47 50.2C47.1 50 47.1 49.7 46.9 49.5C46.9 49.1 46.7 49 46.6 49Z" fill="black"/>
<path d="M52.5 52.1H52.6C52.8 52.2 52.9 52.3 52.9 52.5L53.3 52.4C53.2 52.1 53 51.9 52.7 51.8C52.6 51.8 52.5 51.8 52.4 51.8C52.1 51.8 51.8 52 51.7 52.3C51.5 52.7 51.8 53 52.1 53.2C52.4 53.4 52.5 53.5 52.4 53.7C52.4 53.8 52.3 53.9 52.1 53.9H52C51.8 53.8 51.7 53.7 51.7 53.5L51.2 53.6C51.3 54 51.5 54.2 51.9 54.3C52 54.3 52.1 54.3 52.1 54.3C52.2 54.3 52.2 54.3 52.3 54.3C52.7 54.2 52.8 53.9 52.8 53.8C52.9 53.6 52.8 53.4 52.8 53.4C52.8 53.2 52.6 53.1 52.5 53L52.2 52.8C52.1 52.7 51.9 52.6 52 52.4C52.3 52.2 52.4 52.1 52.5 52.1Z" fill="black"/>
<path d="M43.4 48.6L43.2 48.4C43.1 48.3 43 48.2 43 48C43 48 43.1 47.8 43.2 47.8H43.3C43.5 47.8 43.6 48 43.6 48.2L44 48.1C43.9 47.8 43.7 47.6 43.4 47.5C43.3 47.5 43.2 47.5 43.2 47.5C42.9 47.5 42.7 47.7 42.6 48C42.4 48.4 42.7 48.7 43 48.9C43.3 49.1 43.4 49.2 43.3 49.4C43.2 49.6 43.1 49.6 43 49.6H42.9C42.7 49.5 42.6 49.4 42.6 49.2L42.2 49.3C42.3 49.7 42.4 49.9 42.8 50C42.9 50 43 50 43 50C43.1 50 43.1 50 43.2 50C43.6 49.9 43.7 49.6 43.7 49.5C43.8 49.3 43.7 49.1 43.7 49.1C43.6 48.8 43.5 48.7 43.4 48.6Z" fill="black"/>
<path d="M57.8 49.8C57 48.5 54 47.4 49.9 46.8C49.8 46.8 49.8 46.8 49.8 46.8L49.3 48.9C48.8 48.7 48.3 48.4 47.8 48.1C44.1 46.2 41.2 45.2 39.4 45.2C38.9 45.2 38.5 45.3 38.2 45.4C37.8 45.6 37.6 45.9 37.6 46.3C37.5 47.2 37.3 48.8 37.2 49.8V50.1C37.2 50.2 37.2 50.3 37.2 50.4C37.2 50.5 37.2 50.5 37.2 50.6C37.2 51.5 38.1 52 39.1 52.4C38.6 52.6 38 52.8 37.4 52.9C36.4 52.4 35.4 52 34.5 51.5C34.8 51.3 35.1 51.1 35.3 51C35.8 50.7 36.3 50.4 36.5 50.1C36.9 49.4 36.9 48.8 36.4 48.4C36.3 48.3 36.2 48.3 36.1 48.2C35.5 47.9 34.3 47.2 33 47.2C34.4 46.3 35.8 45.3 37.1 44.3C37.8 44.6 38.6 44.8 39.3 44.8C42.1 44.8 44.7 42.5 45.5 40.4C45.1 40.8 44.3 40.8 43.3 40.9C42.6 40.9 41.8 41 41.1 41.2C40.9 41.2 40.8 41.3 40.7 41.4C41.1 41 41.5 40.6 41.9 40.2C42.4 40.3 42.9 40.4 43.4 40.4C46.6 40.4 48.8 37.6 49.2 35.6C48.9 35.9 48.1 36.1 47.3 36.2C46.6 36.3 45.9 36.4 45.3 36.7C45.1 36.8 44.9 36.9 44.8 37C45.2 36.5 45.5 36 45.9 35.5C46.2 35.5 46.5 35.6 46.8 35.6C47.7 35.6 48.5 35.4 49.3 35C49.3 35 49.3 35 49.4 35C49.4 35 49.5 35 49.5 34.9C50.7 34.2 51.7 33.1 52.3 31.7C52.5 31.2 52.6 30.7 52.7 30.3C52.4 30.7 51.7 30.9 50.9 31.1C50.3 31.3 49.5 31.5 48.9 31.8C48.4 32 48 32.4 47.6 32.8C47.9 32.2 48.2 31.6 48.4 31C48.5 31 48.6 31 48.8 31C50.2 31 51.5 30.3 52.3 29C52.7 28.4 52.9 27.8 53.2 27.2C53.5 26.5 53.7 25.9 54.2 25.4C53.7 25.4 52.3 25.5 50.9 26.5C50.3 26.9 49.8 27.4 49.4 27.9C49.5 27.3 49.7 26.7 49.8 26.2C51.3 26.1 52.7 25 53.3 23.4C53.6 22.7 53.7 22.1 53.8 21.5C53.9 20.8 54 20.2 54.4 19.6C53.9 19.7 52.6 20.1 51.5 21.3C50.9 21.9 50.5 22.6 50.2 23.4C50.2 22.7 50.2 22 50.2 21.3C51.5 20.8 52.4 19.9 52.9 18.7C53.5 17.1 53.3 15.5 52.9 14.5C52.9 14.9 52.5 15.2 52 15.7C51.6 16.1 51.2 16.5 50.8 16.9C50.3 17.6 50.2 18.4 50.1 19.3C50 18.5 49.9 17.8 49.7 17C50.8 16.2 51.4 15.1 51.6 13.8C51.8 12.1 51.2 10.6 50.5 9.79998C50.6 10.2 50.3 10.6 49.9 11.1C49.6 11.5 49.3 12 49.1 12.6C48.9 13 48.9 13.5 48.9 13.9C48.7 13.4 48.6 12.8 48.4 12.3C49.4 11.4 49.9 10.3 49.9 8.99998C49.9 7.29998 49.1 5.89998 48.3 5.09998C48.4 5.39998 48.2 5.89998 47.9 6.49998C47.7 6.99998 47.4 7.49998 47.3 7.99998C47.2 8.49998 47.2 8.99998 47.3 9.49998C47.1 8.99998 46.9 8.49998 46.6 7.99998C47.4 7.09998 47.7 6.09998 47.6 4.89998C47.5 3.29998 46.6 1.99998 45.8 1.39998C45.9 1.69998 45.8 2.19998 45.6 2.79998C45.5 3.19998 45.3 3.69998 45.3 4.19998C45.2 4.69998 45.3 5.19998 45.5 5.79998C45.4 5.59998 45.3 5.39998 45.2 5.29998C45 3.69998 44.4 2.49998 43.3 1.69998C42.7 1.29998 42.2 1.09998 41.6 0.899979C41 0.699979 40.5 0.499976 40.3 0.0999756C40.1 1.39998 40.7 3.19998 42.2 3.99998C42.7 4.19998 43.1 4.39998 43.4 4.59998C44 4.89998 44.5 5.09998 44.9 5.39998C45.2 5.99998 45.6 6.69998 45.9 7.29998C45.8 7.19998 45.8 7.19998 45.7 7.09998L45.6 6.99998C45.1 6.59998 44.6 6.29998 44 5.99998C43.3 5.59998 42.7 5.29998 42.6 4.99998C42.4 5.99998 42.6 7.49998 43.6 8.79998C44.2 9.59998 45.4 10.6 47.4 10.7C47.7 11.6 48.1 12.5 48.3 13.4C47.9 13 47.5 12.5 47.1 12.2C46.5 11.7 46 11.3 46 10.9C45.6 11.7 45.4 13.2 46 14.6C46.4 15.6 47.3 16.8 49.3 17.4C49.5 18.4 49.6 19.3 49.6 20.2C49.6 20.2 49.6 20.2 49.6 20.1C49.3 19.6 48.9 19 48.5 18.6C48 18 47.6 17.5 47.6 17.1C47 17.9 46.6 19.4 46.9 21C47.1 22 47.8 23.4 49.5 24.3C49.4 25.2 49.3 26 49.1 26.9C49 26.4 48.8 26 48.6 25.6C48.3 24.9 48.1 24.2 48.2 23.9C47.2 24.5 46.2 25.9 46.1 27.7C46 28.7 46.2 30.1 47.6 31.5C47.1 32.6 46.6 33.6 46 34.6C46 34.4 46.1 34.3 46.1 34.1C46.2 33.4 46.2 32.7 46.1 32C46.1 31.1 46 30.4 46.3 30C45.2 30.4 43.8 31.7 43.1 33.5C42.7 34.6 42.4 36.3 43.4 38.2C42.7 39.1 41.9 39.9 41.1 40.7C41.3 40.4 41.5 40 41.6 39.7C41.8 39 41.9 38.2 42 37.5C42.1 36.5 42.2 35.7 42.6 35.3C41.6 35.6 40.6 36.3 39.8 37.1L39.7 37.2L39.6 37.3C39.1 37.8 38.8 38.4 38.5 39C37.8 40.4 37.8 41.8 38.2 43.2C36.4 44.6 34.5 46 32.4 47.3V46C32.6 45.5 33.3 45.2 34 44.9C34.5 44.7 35 44.5 35.4 44.2C35.9 43.8 36.1 43.4 36.2 43C36.3 42.4 35.9 42.1 35.9 42.1C35.8 42 35.8 42 35.7 42C35.1 41.5 32.9 40.8 32.1 40.8H32C31.5 40.8 31 41 30.7 41.1C30.3 41.2 30 41.3 29.7 41.3C29.4 41.3 29 41.2 28.6 41.1C28.2 41 27.8 40.9 27.3 40.8H27.2C26.4 40.8 24.1 41.5 23.6 42C23.5 42 23.5 42.1 23.4 42.2C23.4 42.2 23.1 42.6 23.1 43.1C23.1 43.5 23.4 43.9 23.9 44.3C24.3 44.6 24.8 44.8 25.3 45C26 45.3 26.6 45.5 26.8 46V46.1V47.4C24.7 46.1 22.8 44.7 21 43.3C21.5 41.9 21.4 40.5 20.7 39.1C20.4 38.5 20 37.9 19.6 37.4L19.5 37.3L19.4 37.2C18.6 36.3 17.5 35.7 16.6 35.4C17 35.8 17.1 36.6 17.2 37.6C17.3 38.3 17.4 39.1 17.6 39.8C17.7 40.2 17.9 40.5 18.1 40.8C17.3 40 16.5 39.2 15.8 38.3C16.7 36.4 16.5 34.7 16.1 33.6C15.4 31.8 14 30.5 12.9 30.1C13.2 30.5 13.1 31.2 13.1 32.1C13.1 32.8 13 33.5 13.1 34.2C13.1 34.4 13.2 34.5 13.2 34.7C12.6 33.7 12 32.6 11.6 31.6C12.9 30.2 13.1 28.8 13.1 27.8C13 26.1 12 24.7 11 24C11.2 24.4 10.9 25 10.6 25.7C10.4 26.1 10.3 26.6 10.1 27C9.90001 26.2 9.80001 25.3 9.70001 24.4C11.4 23.4 12.1 22.1 12.3 21.1C12.7 19.5 12.2 18 11.6 17.2C11.6 17.6 11.2 18.1 10.7 18.7C10.3 19.2 9.90001 19.7 9.60001 20.2C9.60001 20.2 9.60001 20.2 9.60001 20.3C9.70001 19.4 9.80002 18.4 9.90002 17.5C11.9 16.9 12.8 15.6 13.2 14.7C13.8 13.3 13.7 11.8 13.2 11C13.1 11.4 12.6 11.8 12.1 12.3C11.7 12.7 11.2 13.1 10.9 13.5C11.2 12.6 11.5 11.7 11.8 10.8C13.8 10.7 14.9 9.69998 15.6 8.89998C16.6 7.59998 16.8 6.09998 16.6 5.09998C16.5 5.49998 15.9 5.79998 15.2 6.09998C14.7 6.39998 14.1 6.69998 13.6 7.09998L13.5 7.19998C13.4 7.29998 13.4 7.29998 13.3 7.39998C13.6 6.79998 13.9 6.09998 14.3 5.49998C14.6 5.19998 15.1 4.99998 15.8 4.69998C16.1 4.49998 16.6 4.39998 17 4.09998C18.5 3.29998 19.1 1.49998 18.9 0.199978C18.7 0.599978 18.2 0.699977 17.6 0.999977C17.1 1.19998 16.5 1.39998 16 1.79998C14.8 2.59998 14.2 3.79998 14.1 5.39998C14 5.59998 13.9 5.79998 13.8 5.89998C14 5.39998 14 4.79998 14 4.29998C13.9 3.79998 13.8 3.29998 13.7 2.89998C13.5 2.29998 13.4 1.89998 13.5 1.49998C12.7 2.09998 11.8 3.39998 11.7 4.99998C11.6 6.09998 12 7.19998 12.7 8.09998C12.5 8.59998 12.2 9.09998 12 9.59998C12.1 9.09998 12.1 8.59998 12 8.09998C11.9 7.59998 11.6 6.99998 11.4 6.59998C11.1 5.99998 10.9 5.59998 11 5.19998C10.3 5.89998 9.40002 7.39998 9.40002 9.09998C9.40002 10.3 10 11.5 10.9 12.4C10.7 12.9 10.5 13.5 10.4 14C10.4 13.5 10.4 13.1 10.2 12.7C10 12.2 9.70002 11.7 9.40002 11.2C9.10002 10.7 8.80002 10.2 8.80002 9.89998C8.20002 10.7 7.50001 12.2 7.70001 13.9C7.90001 15.2 8.50001 16.3 9.60001 17.1C9.40001 17.9 9.30001 18.7 9.20001 19.4C9.10001 18.5 9.00002 17.6 8.50002 17C8.20002 16.5 7.70002 16.1 7.30002 15.8C6.80002 15.4 6.40002 15 6.40002 14.6C6.00002 15.6 5.70002 17.2 6.40002 18.8C6.90002 20 7.80001 20.9 9.10001 21.4C9.10001 22.1 9.10001 22.8 9.10001 23.5C8.80001 22.7 8.40002 22 7.80002 21.4C6.70002 20.2 5.40002 19.8 4.90002 19.7C5.20002 20.3 5.40002 20.9 5.50002 21.6C5.60002 22.2 5.70002 22.8 6.00002 23.5C6.60002 25.1 8.00002 26.2 9.50002 26.3C9.60002 26.9 9.70002 27.5 9.90002 28C9.50002 27.4 9.00002 27 8.40002 26.6C7.00002 25.7 5.70001 25.5 5.10001 25.5C5.60001 26 5.80001 26.6 6.10001 27.3C6.30001 27.9 6.60002 28.5 7.00002 29.1C7.80002 30.3 9.20002 31.1 10.5 31.1C10.6 31.1 10.7 31.1 10.9 31.1C11.2 31.7 11.4 32.3 11.7 32.9C11.3 32.5 10.9 32.1 10.4 31.9C9.80002 31.6 9.10002 31.4 8.40002 31.2C7.60002 31 6.80002 30.8 6.50002 30.4C6.60002 30.8 6.70002 31.3 6.90002 31.8C7.50002 33.1 8.50001 34.3 9.70001 35C9.70001 35 9.80002 35 9.80002 35.1C9.80002 35.1 9.80002 35.1 9.90002 35.1C10.7 35.5 11.5 35.7 12.4 35.7C12.7 35.7 13 35.7 13.3 35.6C13.6 36.1 14 36.6 14.4 37.1C14.2 37 14 36.9 13.9 36.8C13.3 36.5 12.5 36.4 11.9 36.3C11 36.1 10.3 36 10 35.7C10.4 37.7 12.6 40.5 15.8 40.5C16.3 40.5 16.8 40.4 17.3 40.3C17.7 40.7 18.1 41.1 18.5 41.5C18.4 41.4 18.2 41.4 18.1 41.3C17.4 41.1 16.6 41.1 15.9 41C14.9 40.9 14.1 40.9 13.7 40.5C14.5 42.6 17.1 44.9 19.9 44.9C20.6 44.9 21.4 44.7 22.1 44.4C23.4 45.4 24.8 46.4 26.2 47.3C25.1 47.3 23.9 47.9 23.2 48.3C23.1 48.4 23 48.4 22.9 48.5C22.4 48.9 22.4 49.6 22.8 50.2C23 50.5 23.5 50.8 24 51.1C24.3 51.3 24.6 51.4 24.8 51.6C23.8 52.1 22.8 52.6 21.8 53C21.2 52.8 20.6 52.7 20.1 52.5C21.1 52.1 22.2 51.6 21.9 50.5C21.9 50.4 21.9 50.4 21.9 50.3C21.8 49.3 21.6 47.5 21.5 46.5C21.5 46.1 21.2 45.8 20.9 45.6C20.6 45.4 20.2 45.4 19.7 45.4C18 45.4 15.1 46.4 11.3 48.3C10.7 48.6 10.2 48.8 9.80002 49.1L9.30002 47H9.10001C5.00001 47.6 2.00002 48.7 1.20002 49.9C1.00002 50.3 0.900016 50.6 1.00002 51L2.20002 55C2.30002 55.4 2.60002 55.7 3.00002 55.8C3.30002 55.9 3.60002 56 4.00002 56C5.70002 56 8.50001 55 12.1 53.1C14.2 52 16 51.2 17.5 50.7C17.6 51.8 17.6 53.1 17.6 54.2V54.3C17.6 54.5 17.6 54.7 17.7 54.9C17 55.2 16.4 55.5 15.7 55.7C16.2 55.8 16.7 56 17.2 56.1C17.5 56 17.8 55.8 18.2 55.7C18.5 56 18.9 56.3 19.3 56.6C20.3 57.2 21.6 57.6 23.2 58C23.4 58.4 23.6 58.9 24 59.4L24.2 59.8L24.3 59.3C24.4 58.8 24.6 58.5 24.8 58.2C26.4 58.4 28.2 58.6 29.7 58.6C31.3 58.6 33.1 58.5 34.7 58.2C34.9 58.5 35.1 58.8 35.2 59.3L35.3 59.7L35.5 59.3C35.8 58.8 36.1 58.3 36.3 57.8C37.9 57.4 39.3 57 40.2 56.4C40.7 56.1 41 55.8 41.3 55.5C41.6 55.6 41.9 55.8 42.3 55.9C42.8 55.8 43.3 55.6 43.8 55.5C43.1 55.2 42.5 54.9 41.8 54.7C41.9 54.5 41.9 54.3 41.9 54.1C41.9 54 41.9 54 41.9 53.9C41.9 52.7 41.9 51.5 42 50.4C43.5 50.9 45.3 51.7 47.4 52.8C51 54.7 53.8 55.7 55.5 55.7C55.9 55.7 56.3 55.6 56.5 55.5C56.9 55.3 57.1 55.1 57.3 54.7L58.5 50.8C58.1 50.5 58 50.2 57.8 49.8ZM49.9 19.2C50 18.5 50.1 17.8 50.4 17.3C50.7 16.7 51.2 16.3 51.6 15.9C51.9 15.7 52.1 15.5 52.2 15.3C52.3 15.6 52.5 16.6 52.2 17.8C52.1 18.4 51.8 18.9 51.5 19.4C51.1 19.9 50.6 20.4 50 20.7C50.6 19.9 51.2 18.4 51.3 17.8C51 18.3 50.3 19.7 49.9 20.2C49.8 19.9 49.8 19.6 49.9 19.2ZM47.2 8.39998C47.2 7.79998 47.5 7.19998 47.8 6.69998C48 6.39998 48.1 6.09998 48.1 5.89998C48.3 6.09998 48.8 6.99998 49 8.19998C49.1 8.79998 49 9.29998 48.9 9.89998C48.7 10.5 48.4 11.1 48 11.7C48.3 10.8 48.3 8.99998 48.2 8.29998C48.2 8.89998 48 10.4 47.8 11.2C47.7 10.9 47.6 10.6 47.5 10.3C47.2 9.59998 47.1 8.89998 47.2 8.39998ZM43.4 8.09998C42.8 7.19998 42.6 6.29998 42.6 5.69998C42.9 5.89998 43.2 6.09998 43.6 6.29998C44.1 6.59998 44.8 6.89998 45.2 7.29998C45.6 7.69998 45.9 8.19998 46.2 8.79998C46.4 9.29998 46.5 9.59998 46.6 9.89998C45.8 9.39998 44.4 7.99998 44.2 7.79998C44.5 8.39998 45.7 9.49998 46.3 9.99998C45.7 9.89998 45.1 9.69998 44.6 9.29998C44.1 8.99998 43.7 8.59998 43.4 8.09998ZM47 36.5C47.5 36.4 48.1 36.3 48.4 36.2C48.2 36.6 47.7 37.5 46.8 38.3C46.3 38.7 45.8 39.1 45.3 39.3C44.6 39.6 43.9 39.7 43.2 39.7C43 39.7 42.9 39.7 42.7 39.7C44.1 39.2 45.8 38 46 37.8C45.6 38 43.4 39.2 42.3 39.5C42.5 39.2 42.8 38.8 43.2 38.4C43.7 37.8 44.3 37.4 44.8 37.1C45.4 36.8 46.3 36.7 47 36.5ZM48.3 32.2C48.9 31.8 49.6 31.6 50.3 31.4C50.8 31.3 51.4 31.1 51.7 30.9C51.4 31.6 50.9 32.5 50.1 33.3C49 34.4 47.8 34.9 46.3 34.9C46.2 34.9 46.2 34.9 46.1 34.9C47.3 34.3 49 33.1 49.5 32.7C48.6 33.2 47 34.2 46 34.6C46.1 34.3 46.4 34 46.7 33.6C47.2 33.1 47.8 32.6 48.3 32.2ZM49.4 27.9C49.8 27.4 50.3 27 50.8 26.7C51.4 26.3 52.1 26 52.8 25.9C52.7 26 52.6 26.3 52.5 26.6C52.2 27.3 51.8 28.3 51.1 29.1C50.7 29.6 50.3 29.9 49.8 30.2C49.3 30.5 48.7 30.6 48.1 30.7C49.1 30.1 50.4 28.6 51.1 27.7C50.5 28.3 48.8 29.9 48.1 30.4C48.2 30 48.4 29.6 48.5 29.2C48.8 28.7 49.1 28.3 49.4 27.9ZM49.8 23.8C50 23.4 50.2 22.9 50.4 22.5C50.7 22.1 51 21.7 51.3 21.4C51.8 20.9 52.4 20.5 53.1 20.2C53 20.4 53 20.6 53 20.9C52.9 21.6 52.7 22.7 52.2 23.6C51.9 24.1 51.6 24.6 51.2 24.9C50.7 25.3 50.2 25.6 49.5 25.7C50.2 25 51.2 23.5 51.4 22.9C50.9 23.4 50.1 24.6 49.5 25.2C49.5 24.9 49.6 24.7 49.6 24.4C49.7 24.2 49.8 24 49.8 23.8ZM48.9 12.9C49 12.3 49.4 11.7 49.7 11.2C49.9 10.9 50.1 10.6 50.1 10.4C50.2 10.7 50.7 11.6 50.7 12.8C50.7 13.4 50.6 13.9 50.4 14.5C50.2 15.1 49.8 15.6 49.4 16.1C49.7 15.1 49.9 13.3 49.9 12.9C49.8 13.5 49.4 15 49.1 15.8C49 15.5 48.9 15.2 48.9 14.7C48.8 14.1 48.8 13.5 48.9 12.9ZM45.5 2.79998C45.6 2.49998 45.7 2.29998 45.7 2.09998C45.9 2.29998 46.5 3.09998 46.7 4.19998C46.8 4.69998 46.9 5.19998 46.8 5.69998C46.7 6.29998 46.5 6.79998 46.2 7.39998C46.3 6.39998 46 4.29998 46 4.29998C46 4.29998 46 6.19998 45.9 6.89998C45.8 6.69998 45.7 6.39998 45.6 6.19998C45.4 5.59998 45.3 4.99998 45.2 4.49998C45.2 3.79998 45.4 3.29998 45.5 2.79998ZM43.6 4.19998C43.2 3.99998 42.6 3.79998 41.9 3.39998C41.3 3.09998 40.9 2.69998 40.6 2.09998C40.4 1.69998 40.3 1.19998 40.2 0.699978C40.3 0.699978 40.4 0.799979 40.6 0.899979C41 0.999979 41.6 1.19998 42.4 1.69998C42.7 1.79998 42.9 2.09998 43.2 2.29998C43.4 2.49998 43.6 2.79998 43.8 3.09998C44.1 3.59998 44.3 4.09998 44.3 4.49998C43.8 3.69998 42.2 2.59998 42.2 2.59998C42.2 2.59998 43.3 3.69998 43.9 4.39998C43.8 4.29998 43.7 4.29998 43.6 4.19998ZM46.8 15.5C46.4 15.1 46.1 14.6 45.9 14C45.5 12.8 45.6 11.7 45.7 11.5C45.9 11.8 46.2 12 46.6 12.3C47.1 12.7 47.6 13.1 47.9 13.7C48.2 14.2 48.4 14.8 48.5 15.4C48.6 15.8 48.6 16.2 48.6 16.4C48.1 15.8 47 14.3 46.8 13.9C47.1 14.7 47.9 16 48.5 16.6C47.8 16.3 47.2 15.9 46.8 15.5ZM47.5 22.1C47.2 21.6 47 21 46.9 20.4C46.8 19.9 46.8 19.4 46.9 18.9C47 18.5 47.1 18.1 47.2 17.8C47.3 18.1 47.6 18.4 47.9 18.8C48.3 19.3 48.8 19.8 49 20.4C49.2 20.9 49.3 21.4 49.3 22C49.3 22.5 49.3 23 49.2 23.4C48.8 22.8 48 21.2 47.8 20.5C47.9 21.2 48.5 22.6 48.9 23.4C48.3 23 47.8 22.6 47.5 22.1ZM46.3 26.9C46.4 26.4 46.6 25.9 46.8 25.4C47 25 47.2 24.7 47.5 24.5C47.5 24.8 47.7 25.2 47.9 25.6C48.1 26.2 48.4 26.8 48.4 27.5C48.4 27.6 48.4 27.8 48.4 27.9C48.2 28.8 47.9 29.6 47.5 30.5C47.3 29.4 47.2 27.1 47.2 26.6C47 27.6 47 29.5 47.2 30.5C46.8 29.9 46.5 29.4 46.3 28.7C46.2 28.1 46.2 27.5 46.3 26.9ZM42.9 34.9C43 34.2 43.1 33.5 43.5 32.9C44 31.8 44.9 30.9 45.5 30.5C45.4 30.8 45.5 31.2 45.5 31.7C45.5 32.5 45.6 33.4 45.4 34.1C45.2 34.8 44.9 35.4 44.5 36.1C44.2 36.5 44 36.9 43.7 37.1C43.7 36.1 44.2 34.1 44.3 33.4C44 33.9 43.5 35.9 43.3 37.2C42.9 36.5 42.8 35.7 42.9 34.9ZM13.1 7.29998C13.5 6.79998 14.1 6.49998 14.7 6.29998C15.1 6.09998 15.5 5.89998 15.7 5.69998C15.7 6.29998 15.4 7.29998 14.9 8.09998C14.6 8.59998 14.1 8.99998 13.7 9.39998C13.2 9.69998 12.7 9.89998 12 10.1C12.6 9.59998 13.7 8.49998 14.1 7.89998C13.9 8.09998 12.4 9.49998 11.7 9.99998C11.8 9.69998 11.9 9.39998 12.1 8.89998C12.4 8.29998 12.7 7.69998 13.1 7.29998ZM9.40002 9.79998C9.30002 9.29998 9.20002 8.69998 9.30002 8.09998C9.50002 6.89998 10 5.99998 10.2 5.79998C10.2 5.99998 10.4 6.29998 10.5 6.59998C10.7 7.09998 11 7.69998 11.1 8.29998C11.1 8.89998 11 9.49998 10.9 10.2C10.8 10.6 10.7 10.9 10.6 11.1C10.3 10.2 10.2 8.69998 10.2 8.19998C10.1 8.79998 10.1 10.7 10.4 11.6C9.90002 11.1 9.50002 10.5 9.40002 9.79998ZM6.80002 19.3C6.50002 18.8 6.20001 18.3 6.10001 17.7C5.80001 16.5 6.00001 15.5 6.10001 15.2C6.20001 15.4 6.40001 15.6 6.70001 15.8C7.10001 16.2 7.60002 16.6 7.90002 17.2C8.10002 17.7 8.30002 18.4 8.40002 19.1C8.40002 19.5 8.50002 19.9 8.40002 20.1C7.90002 19.5 7.30002 18.2 7.00002 17.7C7.10002 18.2 7.80002 19.8 8.30002 20.6C7.70002 20.3 7.20002 19.8 6.80002 19.3ZM12.9 30.5C13.5 30.9 14.3 31.7 14.9 32.9C15.2 33.6 15.4 34.3 15.5 34.9C15.6 35.7 15.4 36.5 15.1 37.3C15 36 14.4 34 14.1 33.5C14.3 34.2 14.7 36.1 14.7 37.2C14.5 37 14.2 36.6 13.9 36.2C13.5 35.5 13.2 34.9 13 34.2C12.8 33.5 12.8 32.6 12.9 31.8C12.9 31.2 13 30.8 12.9 30.5ZM9.90002 27.5C9.90002 26.9 10.2 26.2 10.4 25.6C10.6 25.2 10.7 24.8 10.8 24.5C11 24.7 11.3 25.1 11.5 25.4C11.8 25.9 11.9 26.4 12 26.9C12.1 27.5 12.1 28.1 12 28.7C11.8 29.3 11.5 29.9 11.1 30.5C11.2 29.5 11.3 27.6 11.1 26.6C11.1 27.1 11.1 29.4 10.8 30.5C10.5 29.7 10.2 28.8 9.90002 27.9C9.90002 27.8 9.90002 27.6 9.90002 27.5ZM9.30002 20.4C9.50002 19.8 10 19.3 10.4 18.8C10.7 18.5 11 18.1 11.1 17.8C11.2 18.1 11.3 18.5 11.4 18.9C11.5 19.4 11.5 19.9 11.4 20.4C11.3 21 11.1 21.6 10.8 22.1C10.5 22.6 10 23.1 9.50002 23.5C9.90002 22.7 10.5 21.3 10.6 20.6C10.4 21.3 9.60001 22.8 9.20001 23.5C9.20001 23 9.10001 22.6 9.10001 22.1C9.10001 21.4 9.20002 20.8 9.30002 20.4ZM11.8 12.3C12.1 12 12.5 11.7 12.7 11.5C12.7 11.7 12.9 12.8 12.5 14C12.3 14.6 12 15.1 11.6 15.5C11.2 16 10.6 16.4 10 16.6C10.6 16 11.4 14.7 11.7 13.9C11.4 14.3 10.4 15.8 9.90002 16.4C9.90002 16.1 9.90002 15.8 10 15.4C10.1 14.8 10.3 14.2 10.6 13.7C10.8 13.1 11.3 12.7 11.8 12.3ZM15 2.29998C15.2 1.99998 15.5 1.79998 15.8 1.69998C16.6 1.29998 17.2 1.09998 17.6 0.899979C17.8 0.799979 17.9 0.799978 18 0.699978C18 1.19998 17.8 1.69998 17.6 2.09998C17.3 2.59998 16.9 3.09998 16.3 3.39998C15.6 3.79998 15 3.99998 14.6 4.19998C14.5 4.19998 14.4 4.29998 14.3 4.29998C14.9 3.59998 16 2.49998 16 2.49998C16 2.49998 14.4 3.59998 13.9 4.39998C13.9 3.99998 14.1 3.49998 14.4 2.99998C14.6 2.79998 14.8 2.49998 15 2.29998ZM11.6 4.09998C11.9 2.99998 12.5 2.19998 12.6 1.99998C12.6 2.19998 12.7 2.49998 12.8 2.69998C12.9 3.19998 13.1 3.69998 13.1 4.29998C13.1 4.79998 12.9 5.39998 12.7 5.99998C12.6 6.29998 12.5 6.49998 12.4 6.69998C12.3 5.99998 12.3 4.09998 12.3 4.09998C12.3 4.09998 12 6.19998 12.1 7.19998C11.8 6.69998 11.5 6.09998 11.5 5.49998C11.4 5.19998 11.4 4.59998 11.6 4.09998ZM7.90002 14.6C7.70002 14.1 7.60001 13.5 7.60001 12.9C7.60001 11.7 8.10001 10.7 8.20001 10.5C8.30001 10.7 8.40001 11 8.60001 11.3C8.90001 11.8 9.30002 12.3 9.40002 13C9.50002 13.6 9.50002 14.2 9.40002 14.9C9.30002 15.3 9.20001 15.7 9.20001 16C8.90001 15.2 8.50002 13.7 8.40002 13.1C8.40002 13.5 8.60002 15.3 8.90002 16.3C8.40002 15.7 8.10002 15.2 7.90002 14.6ZM6.00002 23.6C5.50002 22.7 5.30002 21.6 5.20002 20.9C5.10002 20.6 5.10001 20.3 5.10001 20.2C5.80001 20.5 6.30002 20.9 6.90002 21.4C7.20002 21.7 7.50002 22.1 7.80002 22.5C8.10002 22.9 8.30002 23.4 8.40002 23.8C8.50002 24 8.50001 24.2 8.60001 24.4C8.70001 24.7 8.70001 24.9 8.70001 25.2C8.10001 24.6 7.30002 23.5 6.80002 22.9C7.00002 23.5 8.00001 25 8.70001 25.7C8.00001 25.5 7.50002 25.3 7.00002 24.9C6.70002 24.6 6.30002 24.1 6.00002 23.6ZM8.40002 30.1C7.90002 29.9 7.50001 29.5 7.10001 29C6.40001 28.2 6.00002 27.2 5.70002 26.5C5.60002 26.2 5.50002 26 5.40002 25.8C6.10002 26 6.80002 26.2 7.40002 26.6C7.90002 26.9 8.40002 27.4 8.80002 27.8C9.10002 28.2 9.40001 28.5 9.60001 29C9.70001 29.4 9.90002 29.8 10 30.2C9.30002 29.7 7.60002 28.1 7.00002 27.5C7.70002 28.5 9.00002 29.9 10 30.5C9.50002 30.5 8.90002 30.4 8.40002 30.1ZM8.20001 33.4C7.40001 32.6 6.90001 31.6 6.60001 31C7.00001 31.2 7.50002 31.4 8.00002 31.5C8.70002 31.7 9.40002 31.9 10 32.3C10.5 32.7 11.1 33.2 11.5 33.8C11.8 34.2 12.1 34.6 12.2 34.8C11.2 34.4 9.60001 33.4 8.70001 32.9C9.10001 33.3 10.9 34.5 12.1 35.1C12 35.1 12 35.1 11.9 35.1C10.5 35 9.20001 34.5 8.20001 33.4ZM13 39.4C12.4 39.2 11.9 38.8 11.5 38.4C10.6 37.6 10.1 36.6 9.90002 36.3C10.2 36.5 10.7 36.6 11.3 36.6C12 36.7 12.9 36.9 13.5 37.2C14.1 37.5 14.6 38 15.1 38.5C15.5 38.9 15.8 39.4 16 39.6C14.9 39.2 12.7 38.1 12.3 37.9C12.5 38.1 14.2 39.3 15.6 39.8C15.4 39.8 15.3 39.8 15.1 39.8C14.4 39.8 13.6 39.7 13 39.4ZM37.4 50.7C37.4 50.7 37.4 50.6 37.4 50.5C37.4 50.3 37.6 50.1 37.8 50C38 49.9 38.2 49.9 38.5 49.9C39.1 49.9 40 50.1 41.1 50.4C41 51.3 41 52.2 41 53.2C40.6 52.7 39.8 52.4 39.2 52.1C38.1 51.7 37.4 51.4 37.4 50.7ZM33.6 52.5C33.6 52.4 33.7 52.2 33.7 52.1C34.4 52.5 35.1 52.9 35.9 53.3C35.3 53.4 34.7 53.5 34 53.6C33.7 53.2 33.6 52.8 33.6 52.5ZM36 48.6C36.3 48.9 36.3 49.4 36 49.9C35.8 50.2 35.4 50.4 34.9 50.7C34.6 50.9 34.2 51.1 33.9 51.4C33.2 51 32.4 50.6 31.7 50.3C32.6 49.9 33.5 49.4 34.3 48.8C34.6 48.6 34.9 48.5 35.2 48.5C35.5 48.4 35.8 48.5 36 48.6ZM31.1 53.8C30.4 53.8 29.8 53.9 29.1 53.9C28.5 53.9 27.9 53.9 27.2 53.8C27.8 53.2 28.3 52.6 28.2 51.9C28.2 51.5 28 51.1 27.7 50.8C28.2 50.9 28.6 51 29.1 51C29.6 51 30 50.9 30.6 50.8C30.2 51.2 30.1 51.6 30 52C30.1 52.6 30.5 53.2 31.1 53.8ZM29.1 50.6C28.6 50.6 28.2 50.5 27.6 50.4C28.1 50.1 28.6 49.8 29 49.6C29 49.6 29 49.6 29.1 49.6H29.2C29.7 49.9 30.1 50.1 30.6 50.4C30.1 50.5 29.6 50.6 29.1 50.6ZM29.1 44.8C29 44.8 28.8 44.8 28.7 44.8C28.7 44 28.4 43.6 28.1 43.3C28.5 43.4 28.8 43.4 29.1 43.4C29.4 43.4 29.7 43.4 30.1 43.3C29.8 43.6 29.5 44 29.5 44.8C29.4 44.8 29.3 44.8 29.1 44.8ZM29.1 45.1C31.3 45.1 31.5 45.5 31.5 45.8V48.6C31.5 49.1 30.5 49.2 29.1 49.2C27.7 49.2 26.7 49.1 26.7 48.6V45.8C26.7 45.5 26.9 45.1 29.1 45.1ZM32.8 47.5C33.5 47.5 34.3 47.8 34.9 48C34.6 48.1 34.3 48.2 34.1 48.4C33.3 49.1 32.4 49.5 31.3 50C31 49.8 30.6 49.6 30.3 49.5C31.2 49.4 31.8 49.2 31.8 48.6V47.8C31.9 47.7 32 47.7 32.1 47.6C32.4 47.6 32.6 47.5 32.8 47.5ZM40.7 41.5C41.5 41.2 42.4 41.1 43.2 41.1C43.8 41.1 44.2 41.1 44.6 41C44.4 41.3 43.7 42.2 42.7 43C42.2 43.4 41.7 43.7 41.2 43.9C40.6 44.1 39.9 44.3 39.3 44.3C38.9 44.3 38.5 44.2 38 44.1C39.3 43.8 40.8 43.2 41.6 42.7C40.9 43 38.8 43.8 37.6 43.8C37.7 43.6 38.1 43.3 38.5 42.9C38.6 42.8 38.7 42.7 38.9 42.6C39.4 42.3 40 41.9 40.7 41.5ZM38 40C38.2 39.3 38.5 38.6 38.9 38C39.8 36.8 41 36 41.4 35.7C41.3 36 41.2 36.5 41.2 37.1C41.1 37.9 41 38.8 40.6 39.6C39.9 41 38.6 42.1 38.2 42.5C38.4 41.4 39.4 39.3 39.6 38.7C39.3 39 38.3 40.9 37.9 42.3C37.8 41.5 37.8 40.7 38 40ZM35.3 42.7C35.3 43 35 43.4 34.7 43.7C34.4 44 33.9 44.2 33.4 44.4C32.8 44.6 32.1 44.9 31.8 45.4C31.6 45.1 31 44.9 30 44.8C30 43.8 30.4 43.5 30.9 43.2L31 43.1C31.4 43 31.8 42.8 32.3 42.6C32.6 42.5 32.9 42.3 33.1 42.2C33.7 41.9 34.1 41.7 34.5 41.7C34.8 41.7 35 41.8 35.2 42C35.2 42.1 35.4 42.4 35.3 42.7ZM26.8 40.8C27.3 40.8 27.7 41 28.1 41.1C28.5 41.2 28.9 41.3 29.3 41.3C29.7 41.3 30 41.2 30.4 41.1C30.8 41 31.2 40.9 31.7 40.8H31.8C32.3 40.8 33.4 41.1 34.3 41.5C33.9 41.6 33.5 41.8 33.1 42C32.8 42.1 32.6 42.3 32.3 42.4C30.9 42.9 30.1 43.1 29.3 43.1C28.5 43.1 27.7 42.9 26.3 42.4C26 42.3 25.8 42.2 25.5 42C25.1 41.8 24.7 41.6 24.4 41.5C25.1 41.1 26.3 40.8 26.8 40.8ZM25 44.4C24.5 44.2 24 44 23.7 43.7C23.3 43.4 23.1 43.1 23.1 42.7C23.1 42.3 23.3 42 23.3 42C23.5 41.8 23.7 41.7 24 41.7C24.4 41.7 24.8 41.9 25.4 42.2C25.7 42.3 26 42.5 26.2 42.6C26.7 42.8 27.1 42.9 27.5 43.1L27.6 43.2C28.1 43.5 28.4 43.9 28.5 44.8C27.5 44.8 26.9 45 26.6 45.3C26.2 44.9 25.6 44.6 25 44.4ZM17.1 37.1C17 36.5 17 36.1 16.9 35.7C17.4 36 18.5 36.7 19.4 38C19.9 38.6 20.2 39.3 20.3 40C20.5 40.7 20.5 41.5 20.3 42.2C19.9 40.8 18.9 39 18.6 38.6C18.9 39.2 19.8 41.3 20 42.4C19.5 42 18.3 41 17.6 39.5C17.2 38.9 17.1 37.9 17.1 37.1ZM19 44.3C18.4 44.3 17.7 44.2 17.1 43.9C16.6 43.7 16 43.4 15.6 43C14.6 42.2 14 41.4 13.7 41C14 41.1 14.5 41.1 15.1 41.1C15.9 41.1 16.9 41.2 17.6 41.5C18.3 41.8 18.9 42.2 19.4 42.6C19.5 42.7 19.6 42.8 19.8 42.9C20.2 43.3 20.5 43.6 20.7 43.8C19.5 43.7 17.4 42.9 16.7 42.7C17.4 43.2 19 43.8 20.3 44.1C19.8 44.2 19.4 44.3 19 44.3ZM25.4 47.5C25.7 47.5 25.9 47.5 26.1 47.6C26.2 47.7 26.3 47.7 26.3 47.8V48.6C26.3 49.2 27 49.4 27.9 49.5C27.6 49.7 27.2 49.9 26.9 50.1C25.8 49.6 25.1 49.2 24.2 48.5C24 48.3 23.7 48.2 23.4 48.1C24 47.8 24.7 47.5 25.4 47.5ZM23.4 50.7C22.9 50.4 22.5 50.2 22.3 49.9C22 49.4 22 48.9 22.3 48.6C22.5 48.4 22.8 48.3 23.1 48.3C23.4 48.3 23.7 48.4 24 48.6C24.8 49.3 25.5 49.7 26.5 50.1C25.8 50.5 25.1 50.8 24.4 51.2C24.1 51.1 23.7 50.9 23.4 50.7ZM24.6 52.1C24.7 52.2 24.7 52.4 24.8 52.5C24.8 52.8 24.7 53.2 24.4 53.6C23.7 53.5 23 53.4 22.4 53.3C23.1 52.9 23.9 52.5 24.6 52.1ZM20.9 50.5C20.9 50.6 20.9 50.7 20.9 50.7C20.9 51.4 20.2 51.7 19.1 52.2C18.4 52.5 17.7 52.8 17.3 53.3C17.3 52.4 17.3 51.4 17.2 50.5C18.3 50.1 19.2 49.9 19.8 49.9C20.1 49.9 20.3 49.9 20.5 50C20.7 50.2 20.8 50.3 20.9 50.5ZM0.600015 50.8C0.500015 50.5 0.600017 50.3 0.700017 50C1.40002 48.9 4.30001 47.8 8.10001 47.2L8.50002 49.1C5.10002 50.7 3.00002 51.5 1.70002 51.5C1.40002 51.5 1.20002 51.5 1.00002 51.4C0.900016 51.3 0.700015 51.1 0.600015 50.8ZM11.3 52.7C6.80002 55 4.50002 55.5 3.40002 55.5C3.00002 55.5 2.70002 55.4 2.50002 55.3C2.20002 55.2 2.00002 55 1.90002 54.7L1.00002 51.6C1.00002 51.6 1.10001 51.6 1.10001 51.7C1.30001 51.8 1.60002 51.9 2.00002 51.9C3.90002 51.9 7.40002 50.3 10.9 48.5C15.6 46.2 17.9 45.7 19.1 45.7C19.6 45.7 20 45.8 20.1 45.9C20.4 46 20.5 46.2 20.5 46.5C20.6 47.4 20.8 48.9 20.9 49.8L20.8 49.7C20.6 49.6 20.3 49.5 19.9 49.5C17.7 49.6 14 51.3 11.3 52.7ZM17.3 54.2C17.3 53.4 18.1 53 18.9 52.6C19.4 52.8 19.9 53 20.6 53.2C19.5 53.7 18.5 54.2 17.4 54.6C17.3 54.5 17.3 54.4 17.3 54.2ZM22.4 57.5C20.1 57 18.6 56.3 17.8 55.4C19.2 54.8 20.5 54.1 21.8 53.5C22.5 53.6 23.2 53.8 24 53.9L23.9 54C22.4 55.4 22.1 56.4 22.4 57.5ZM23.5 58.7C22.4 56.9 22.4 56 24.2 54.3C24.9 53.6 25.2 53 25.2 52.5C25.2 52.3 25.1 52.1 25 51.9C25.7 51.5 26.5 51.1 27.2 50.7C27.7 51.1 28 51.5 28 51.9C28 52.8 27 53.7 26.1 54.4C25.3 55.1 24.5 55.7 24.6 56.4C24.6 56.7 24.8 56.9 25.1 57H25.2H25.1C24.3 57.5 23.7 58 23.5 58.7ZM29.1 58.2C27.6 58.2 26 58.1 24.5 57.9C24.9 57.6 25.4 57.4 25.7 57.3L26.2 57.1L25.7 56.9C25.2 56.7 25 56.5 24.9 56.3C24.8 55.9 25.5 55.3 26.2 54.7C26.4 54.5 26.6 54.3 26.8 54.1C27.6 54.1 28.3 54.2 29 54.2C29.7 54.2 30.5 54.2 31.3 54.1C31.5 54.3 31.7 54.5 32 54.7C32.7 55.3 33.4 55.9 33.3 56.3C33.3 56.5 33 56.7 32.5 56.9L32 57.1L32.5 57.3C32.8 57.4 33.3 57.6 33.7 57.9C32.3 58.1 30.7 58.2 29.1 58.2ZM35 58.7C34.6 58 34.1 57.5 33.3 57.1H33.2H33.3C33.6 56.9 33.8 56.7 33.8 56.5C33.9 55.9 33.2 55.3 32.3 54.5C32.1 54.3 31.8 54.1 31.6 53.8C31 53.2 30.4 52.6 30.5 51.9C30.5 51.5 30.8 51.1 31.3 50.7C32 51.1 32.8 51.5 33.5 51.9C33.4 52.1 33.3 52.2 33.3 52.4C33.2 53 33.6 53.6 34.3 54.2C36 56 36 56.9 35 58.7ZM39.5 56.2C38.6 56.7 37.4 57.1 35.9 57.5C36.2 56.4 35.9 55.4 34.4 54C34.3 53.9 34.3 53.9 34.3 53.9C35.1 53.8 35.8 53.7 36.4 53.5C37.7 54.2 39 54.8 40.4 55.4C40.2 55.7 39.9 56 39.5 56.2ZM37.7 53.2C38.3 53 38.9 52.8 39.4 52.6C40.2 52.9 40.9 53.3 41 54V54.1C41 54.1 41 54.1 41 54.2C41 54.4 41 54.5 40.9 54.7C39.8 54.2 38.8 53.7 37.7 53.2ZM56.4 54.8C56.3 55.1 56.1 55.3 55.8 55.4C55.6 55.5 55.3 55.6 54.9 55.6C53.8 55.6 51.5 55.1 47 52.8C44.2 51.4 40.5 49.7 38.5 49.7C38.1 49.7 37.8 49.8 37.6 49.9C37.6 49.9 37.5 49.9 37.5 50C37.6 48.9 37.8 47.5 37.9 46.7C37.9 46.4 38.1 46.2 38.3 46.1C38.5 46 38.8 45.9 39.3 45.9C40.5 45.9 42.8 46.4 47.5 48.7C51 50.5 54.5 52.1 56.4 52.1C56.7 52.1 57 52 57.3 51.9C57.3 51.9 57.4 51.9 57.4 51.8L56.4 54.8ZM57.6 50.8C57.5 51.1 57.3 51.3 57.1 51.4C56.9 51.5 56.7 51.5 56.4 51.5C55.1 51.5 53 50.7 49.6 49.1L50 47.2C53.8 47.8 56.7 48.9 57.4 50C57.7 50.3 57.7 50.5 57.6 50.8Z" fill="black"/>
<path d="M63.9 40.7V44.5C63.9 45.6 64.2 46.1 64.9 46.1C65.7 46.1 66 45.5 66 44.3V40.7H66.8V44.8C66.8 46 66 46.8 64.9 46.8C63.7 46.8 63 46 63 44.6V40.7H63.9V40.7Z" fill="black"/>
<path d="M69 40.7H70.1L71.5 43.8C71.8 44.4 72.1 45.1 72.3 45.8H72.4V40.7H73.1V46.7H72L70.5 43.4C70.2 42.8 70 42.2 69.8 41.6H69.7V46.8H69V40.7Z" fill="black"/>
<path d="M74.7999 46.1H75.2999V41.3H74.7999V40.7H76.6999V41.3H76.1999V46.1H76.6999V46.7H74.7999V46.1Z" fill="black"/>
<path d="M77.8999 40.7H78.6999L80.1999 45.6H80.2999L81.7999 40.7H82.5999L80.6999 46.7H79.7999L77.8999 40.7Z" fill="black"/>
<path d="M84.1 40.7H87.8V41.4H85V43.1H87.1V43.8H85V45.9H88V46.6H84.2V40.7H84.1Z" fill="black"/>
<path d="M89.8 40.7H91.3C92.8 40.7 93.5 41.3 93.5 42.4C93.5 43.2 93.1 43.7 92.3 43.9L93.8 46.7H92.8L91.3999 44.1H90.5V46.7H89.7V40.7H89.8ZM90.6 43.3H91.2C92.2 43.3 92.7 43 92.7 42.4C92.7 41.7 92.2 41.4 91.2 41.4H90.6V43.3Z" fill="black"/>
<path d="M95.6999 45C96.0999 45.7 96.4999 46.1 96.9999 46.1C97.5999 46.1 97.9999 45.7 97.9999 45.1C97.9999 44.9 97.8999 44.6 97.6999 44.5C97.3999 44.2 96.9999 44 96.4999 43.8C96.0999 43.6 95.6999 43.4 95.3999 43C95.1999 42.7 95.0999 42.4 95.0999 42.1C95.0999 41.1 95.7999 40.5 96.7999 40.5C97.5999 40.5 98.2999 40.9 98.6999 41.8L97.9999 42.2C97.6999 41.5 97.3999 41.2 96.7999 41.2C96.1999 41.2 95.8999 41.5 95.8999 42C95.8999 42.2 95.9999 42.3 96.0999 42.5C96.3999 42.8 96.7999 42.9 97.1999 43.2C98.1999 43.7 98.6999 44.1 98.6999 45.1C98.6999 46.1 97.9999 46.8 96.7999 46.8C95.7999 46.8 95.1999 46.4 94.7999 45.4L95.6999 45Z" fill="black"/>
<path d="M100.3 46.1H100.8V41.3H100.3V40.7H102.2V41.3H101.7V46.1H102.2V46.7H100.3V46.1Z" fill="black"/>
<path d="M104.8 41.4H103.1V40.7H107.4V41.4H105.7V46.6H104.9V41.4H104.8Z" fill="black"/>
<path d="M108.6 40.7H112.3V41.4H109.4V43.1H111.5V43.8H109.4V45.9H112.4V46.6H108.6V40.7V40.7ZM110.8 38.7H111.6L110.5 40.1H110L110.8 38.7Z" fill="black"/>
<path d="M62.7 50.5H64.1C65.9 50.5 66.8 51.5 66.8 53.5C66.8 55.5 65.9 56.5 64.1 56.5H62.7V50.5ZM64 55.7C65.3 55.7 65.9 55 65.9 53.4C65.9 51.8 65.3 51.2 64 51.2H63.5V55.7H64Z" fill="black"/>
<path d="M68.9 50.3H69.6L68.7 52.8H68L68.9 50.3Z" fill="black"/>
<path d="M70.7999 55.9H71.2999V51.1H70.7999V50.5H72.6999V51.1H72.1999V55.9H72.6999V56.5H70.7999V55.9Z" fill="black"/>
<path d="M74.3999 50.5H75.4999L76.8999 53.6C77.1999 54.2 77.4999 54.9 77.6999 55.6H77.7999V50.5H78.4999V56.5H77.3999L75.8999 53.2C75.5999 52.6 75.3999 52 75.1999 51.4H75.0999V56.5H74.3999V50.5V50.5Z" fill="black"/>
<path d="M84 56.6L83.7 56H83.5C83.1 56.4 82.8 56.7 82.2 56.7C81 56.7 80.2 55.6 80.2 53.5C80.2 51.5 81 50.4 82.3 50.4C83.1 50.4 83.7 50.9 84 51.8L83.2 52C83.1 51.4 82.7 51.1 82.3 51.1C81.5 51.1 81.1 51.9 81.1 53.5C81.1 55.1 81.5 55.9 82.3 55.9C82.9 55.9 83.3999 55.4 83.3999 54.5V54.4H82.3V53.7H84.2V56.6H84V56.6Z" fill="black"/>
<path d="M86.2 50.5H89.8999V51.2H87V52.9H89.1V53.6H87V55.7H90V56.4H86.2V50.5V50.5ZM88.3999 48.5H89.2L88.1 49.9H87.6L88.3999 48.5Z" fill="black"/>
<path d="M91.7999 50.5H92.8999L94.2999 53.6C94.5999 54.2 94.8999 54.9 95.0999 55.6H95.1999V50.5H95.8999V56.5H94.7999L93.2999 53.2C92.9999 52.6 92.7999 52 92.5999 51.4H92.4999V56.5H91.7999V50.5V50.5Z" fill="black"/>
<path d="M97.6 55.9H98.1V51.1H97.6V50.5H99.5V51.1H99V55.9H99.5V56.5H97.6V55.9Z" fill="black"/>
<path d="M101.4 50.5H105.1V51.2H102.2V52.9H104.3V53.6H102.2V55.7H105.2V56.4H101.4V50.5V50.5Z" fill="black"/>
<path d="M107 50.5H108.5C110 50.5 110.7 51.1 110.7 52.2C110.7 53 110.3 53.5 109.5 53.7L111 56.5H110L108.6 53.9H107.7V56.5H107V50.5ZM107.8 53.1H108.4C109.4 53.1 109.9 52.8 109.9 52.2C109.9 51.5 109.4 51.2 108.4 51.2H107.8V53.1Z" fill="black"/>
<path d="M112.3 55.9H112.8V51.1H112.3V50.5H114.2V51.1H113.7V55.9H114.2V56.5H112.3V55.9Z" fill="black"/>
<path d="M116 50.5H119.7V51.2H116.8V52.9H118.9V53.6H116.8V55.7H119.8V56.4H116V50.5Z" fill="black"/>
<path d="M65.1 1C66.3 1 67.2 1 67.9 1.4C68.7 1.9 69.1 2.7 69.1 3.8C69.1 4.9 68.7 5.7 67.9 6.2C67.3 6.6 66.4 6.6 65.1 6.6H64.8V9.9H62.8V1H65.1ZM64.8 5.1H65.4C66.6 5.1 67.1 4.8 67.1 3.8C67.1 2.8 66.6 2.5 65.4 2.5H64.8V5.1Z" fill="black"/>
<path d="M70.5 4.69999C70.5 3.29999 70.6 2.39999 71.3 1.59999C71.8 1.09999 72.6 0.799988 73.5 0.799988C74.5 0.799988 75.2 1.09999 75.8 1.59999C76.5 2.39999 76.6 3.29999 76.6 4.69999V6.29999C76.6 7.69999 76.5 8.59999 75.8 9.39999C75.3 9.89999 74.5 10.2 73.5 10.2C72.5 10.2 71.8 9.89999 71.3 9.39999C70.6 8.59999 70.5 7.69999 70.5 6.29999V4.69999ZM74.5 4.29999C74.5 2.99999 74.4 2.49999 73.5 2.49999C72.6 2.49999 72.5 3.09999 72.5 4.29999V6.49999C72.5 7.79999 72.6 8.29999 73.5 8.29999C74.4 8.29999 74.5 7.69999 74.5 6.49999V4.29999Z" fill="black"/>
<path d="M78.6001 1H80.6001V8.2H84.5001V9.9H78.6001V1Z" fill="black"/>
<path d="M85.9001 6.4L83.2001 1H85.3001L86.9001 4.3L88.5001 1H90.6001L87.9001 6.4V10H85.9001V6.4Z" fill="black"/>
<path d="M93.0001 2.7H90.7001V1H97.2001V2.7H95.0001V9.9H93.0001V2.7Z" fill="black"/>
<path d="M98.6 1H104.6V2.7H100.5V4.3H103.3V6H100.5V8.1H104.8V9.8H98.5V1H98.6Z" fill="black"/>
<path d="M106.1 4.69999C106.1 3.29999 106.2 2.39999 106.9 1.59999C107.4 1.09999 108.2 0.799988 109.1 0.799988C110.9 0.799988 112.1 1.99999 112.1 3.29999V3.79999H110.1C110.1 2.89999 109.8 2.49999 109.1 2.49999C108.1 2.49999 108.1 3.09999 108.1 4.29999V6.49999C108.1 7.69999 108.2 8.29999 109.1 8.29999C109.9 8.29999 110.1 7.89999 110.1 6.89999V6.79999H112.1V7.39999C112.1 8.99999 110.9 10.1 109.1 10.1C108.1 10.1 107.4 9.79999 106.9 9.29999C106.2 8.49999 106.1 7.59999 106.1 6.19999V4.69999Z" fill="black"/>
<path d="M114.1 1H116.1V4.3H118.7V1H120.7V9.9H118.7V6H116.1V9.9H114.1V1Z" fill="black"/>
<path d="M123 1H124.9L127.8 6.4V1H129.5V9.9H127.9L124.8 3.9V9.9H123V1Z" fill="black"/>
<path d="M131 9.1H132V1.8H131V1H135V1.8H134V9.1H135V9.9H131V9.1Z" fill="black"/>
<path d="M136.2 4.69999C136.2 3.29999 136.3 2.39999 137 1.59999C137.5 1.09999 138.3 0.799988 139.3 0.799988C140.3 0.799988 141 1.09999 141.5 1.59999C142.2 2.39999 142.3 3.29999 142.3 4.69999V6.29999C142.3 7.29999 142.2 7.99999 142.1 8.29999C142.3 8.59999 142.6 8.79999 142.9 8.79999H143V10.8H142.8C141.9 10.8 141.4 10.4 141.1 9.59999C140.6 9.99999 140 10.2 139.2 10.2C138.2 10.2 137.4 9.89999 136.9 9.39999C136.2 8.59999 136.1 7.69999 136.1 6.29999V4.69999H136.2ZM138.2 6.59999C138.2 7.89999 138.3 8.39999 139.2 8.39999C139.6 8.39999 139.8 8.29999 140 8.09999C139.8 7.69999 139.6 7.59999 139.2 7.59999H139.1V5.89999H139.2C139.7 5.89999 140.1 6.19999 140.3 6.69999C140.2 6.49999 140.2 6.19999 140.2 5.89999V4.39999C140.2 3.09999 140.1 2.59999 139.1 2.59999C138.1 2.59999 138.1 3.19999 138.1 4.39999V6.59999H138.2Z" fill="black"/>
<path d="M146.5 6.6C146.5 7.9 146.7 8.4 147.7 8.4C148.7 8.4 148.9 7.8 148.9 6.6V1H150.9V7C150.9 9.1 149.9 10.1 147.7 10.1C145.5 10.1 144.5 9.1 144.5 7V1H146.5V6.6Z" fill="black"/>
<path d="M153.2 1H159.2V2.7H155.1V4.3H157.9V6H155.1V8.1H159.4V9.8H153.1V1H153.2Z" fill="black"/>
<path d="M69.8 16.3L67.9 23.8H66.6L64.7 16.3L64.8 23.8H63V14.9H65.7L67.3 20.7L68.9 14.9H71.6V23.8H69.9L69.8 16.3Z" fill="black"/>
<path d="M73.7001 18.5C73.7001 17.1 73.8001 16.2 74.5001 15.4C75.0001 14.9 75.8001 14.6 76.7001 14.6C77.7001 14.6 78.4001 14.9 79.0001 15.4C79.7001 16.2 79.8001 17.1 79.8001 18.5V20.1C79.8001 21.5 79.7001 22.4 79.0001 23.2C78.5001 23.7 77.7001 24 76.7001 24C75.7001 24 75.0001 23.7 74.5001 23.2C73.8001 22.4 73.7001 21.5 73.7001 20.1V18.5ZM77.8001 18.2C77.8001 16.9 77.7001 16.4 76.8001 16.4C75.9001 16.4 75.8001 17 75.8001 18.2V20.4C75.8001 21.7 75.9001 22.2 76.8001 22.2C77.7001 22.2 77.8001 21.6 77.8001 20.4V18.2Z" fill="black"/>
<path d="M82 14.8H83.9L86.8 20.2V14.8H88.5V23.7H86.9L83.8 17.7V23.7H82V14.8Z" fill="black"/>
<path d="M92.1001 16.6H89.8V14.9H96.3V16.6H94V23.8H92V16.6H92.1001Z" fill="black"/>
<path d="M99.9001 14.8C101.1 14.8 102 14.8 102.7 15.2C103.5 15.6 103.9 16.4 103.9 17.5C103.9 18.7 103.3 19.6 102.3 19.9L104.3 23.8H102L100.3 20.2H99.6001V23.8H97.6001V14.9H99.9001V14.8ZM99.6001 18.7H100.2C101.4 18.7 101.9 18.5 101.9 17.5C101.9 16.5 101.4 16.3 100.2 16.3H99.6001V18.7Z" fill="black"/>
<path d="M105.8 14.8H111.8V16.5H107.7V18.1H110.5V19.8H107.7V21.9H112V23.6H105.7V14.8H105.8ZM108.9 14H108L109.2 11.8H110.9L108.9 14Z" fill="black"/>
<path d="M117.8 22H115.1L114.6 23.8H112.7L115.3 14.9H117.6L120.2 23.8H118.3L117.8 22ZM117.4 20.5L116.4 16.5L115.4 20.5H117.4Z" fill="black"/>
<path d="M121.5 14.8H123.5V22H127.4V23.7H121.5V14.8Z" fill="black"/>
</svg>
