<?xml version="1.0" encoding="UTF-8"?>
<svg width="199px" height="32px" viewBox="0 0 199 32" version="1.1" xmlns="http://www.w3.org/2000/svg" xmlns:xlink="http://www.w3.org/1999/xlink">
    <!-- Generator: sketchtool 55.2 (78181) - https://sketchapp.com -->
    <title>8559AFEE-0902-413D-9078-6BF2B5AEA779</title>
    <desc>Created with sketchtool.</desc>
    <g id="Page-1" stroke="none" stroke-width="1" fill="none" fill-rule="evenodd">
        <g id="-PSASC-Landing-page" transform="translate(-52.000000, -42.000000)" fill="#000000" fill-rule="nonzero">
            <path d="M57.684,54.148 L61.832,54.148 C62.4440031,54.148 63.0333305,54.1026671 63.6,54.012 C64.1666695,53.9213329 64.6653312,53.745668 65.096,53.485 C65.5266688,53.224332 65.872332,52.8560024 66.133,52.38 C66.393668,51.9039976 66.524,51.2806705 66.524,50.51 C66.524,49.7393295 66.393668,49.1160024 66.133,48.64 C65.872332,48.1639976 65.5266688,47.795668 65.096,47.535 C64.6653312,47.274332 64.1666695,47.0986671 63.6,47.008 C63.0333305,46.9173329 62.4440031,46.872 61.832,46.872 L57.684,46.872 L57.684,54.148 Z M52.346,42.724 L63.294,42.724 C64.8126743,42.724 66.1046613,42.9449978 67.17,43.387 C68.2353387,43.8290022 69.10233,44.412663 69.771,45.138 C70.43967,45.863337 70.9269985,46.690662 71.233,47.62 C71.5390015,48.549338 71.692,49.5126617 71.692,50.51 C71.692,51.4846715 71.5390015,52.4423286 71.233,53.383 C70.9269985,54.3236714 70.43967,55.156663 69.771,55.882 C69.10233,56.607337 68.2353387,57.1909978 67.17,57.633 C66.1046613,58.0750022 64.8126743,58.296 63.294,58.296 L57.684,58.296 L57.684,67 L52.346,67 L52.346,42.724 Z M81.662,58.942 C81.662,59.7580041 81.8093319,60.4493305 82.104,61.016 C82.3986681,61.5826695 82.7896642,62.0416649 83.277,62.393 C83.7643358,62.7443351 84.3366634,63.0049992 84.994,63.175 C85.6513366,63.3450009 86.3313298,63.43 87.034,63.43 C87.5100024,63.43 88.0199973,63.3903337 88.564,63.311 C89.1080027,63.2316663 89.6179976,63.0786678 90.094,62.852 C90.5700024,62.6253322 90.9666651,62.3136686 91.284,61.917 C91.6013349,61.5203314 91.76,61.0160031 91.76,60.404 C91.76,59.7466634 91.5503354,59.214002 91.131,58.806 C90.7116646,58.397998 90.1620034,58.0580014 89.482,57.786 C88.8019966,57.5139986 88.0313376,57.276001 87.17,57.072 C86.3086624,56.867999 85.4360044,56.6413346 84.552,56.392 C83.6453288,56.1653322 82.7613376,55.8876683 81.9,55.559 C81.0386624,55.2303317 80.2680034,54.8053359 79.588,54.284 C78.9079966,53.7626641 78.3583354,53.1110039 77.939,52.329 C77.5196646,51.5469961 77.31,50.6006722 77.31,49.49 C77.31,48.2433271 77.5763307,47.1610046 78.109,46.243 C78.6416693,45.3249954 79.3386624,44.5600031 80.2,43.948 C81.0613376,43.3359969 82.0359946,42.8826681 83.124,42.588 C84.2120054,42.2933319 85.2999946,42.146 86.388,42.146 C87.6573397,42.146 88.8756608,42.2876652 90.043,42.571 C91.2103392,42.8543347 92.2473288,43.3133302 93.154,43.948 C94.0606712,44.5826698 94.7803307,45.3929951 95.313,46.379 C95.8456693,47.3650049 96.112,48.5606596 96.112,49.966 L90.944,49.966 C90.8986664,49.240663 90.745668,48.6400024 90.485,48.164 C90.224332,47.6879976 89.8786688,47.3140014 89.448,47.042 C89.0173312,46.7699986 88.5243361,46.5773339 87.969,46.464 C87.4136639,46.3506661 86.8073366,46.294 86.15,46.294 C85.7193312,46.294 85.2886688,46.3393329 84.858,46.43 C84.4273312,46.5206671 84.0363351,46.6793322 83.685,46.906 C83.3336649,47.1326678 83.0446678,47.4159983 82.818,47.756 C82.5913322,48.0960017 82.478,48.5266641 82.478,49.048 C82.478,49.5240024 82.5686658,49.9093319 82.75,50.204 C82.9313342,50.4986681 83.2883307,50.7706654 83.821,51.02 C84.3536693,51.2693346 85.0903286,51.5186654 86.031,51.768 C86.9716714,52.0173346 88.2013257,52.3346647 89.72,52.72 C90.1733356,52.8106671 90.8023293,52.9749988 91.607,53.213 C92.4116707,53.4510012 93.2106627,53.8306641 94.004,54.352 C94.7973373,54.8733359 95.4829971,55.570329 96.061,56.443 C96.6390029,57.315671 96.928,58.4319932 96.928,59.792 C96.928,60.9026722 96.7126688,61.9339952 96.282,62.886 C95.8513312,63.8380048 95.2110043,64.6596632 94.361,65.351 C93.5109958,66.0423368 92.4570063,66.5806647 91.199,66.966 C89.9409937,67.3513353 88.4846749,67.544 86.83,67.544 C85.49266,67.544 84.1950063,67.3796683 82.937,67.051 C81.6789937,66.7223317 80.5683381,66.2066702 79.605,65.504 C78.6416618,64.8013298 77.8766695,63.9060054 77.31,62.818 C76.7433305,61.7299946 76.4713332,60.4380075 76.494,58.942 L81.662,58.942 Z M109.21,57.616 L115.5,57.616 L112.44,48.708 L112.372,48.708 L109.21,57.616 Z M109.72,42.724 L115.194,42.724 L124.272,67 L118.73,67 L116.894,61.594 L107.816,61.594 L105.912,67 L100.54,67 L109.72,42.724 Z M133.018,58.942 C133.018,59.7580041 133.165332,60.4493305 133.46,61.016 C133.754668,61.5826695 134.145664,62.0416649 134.633,62.393 C135.120336,62.7443351 135.692663,63.0049992 136.35,63.175 C137.007337,63.3450009 137.68733,63.43 138.39,63.43 C138.866002,63.43 139.375997,63.3903337 139.92,63.311 C140.464003,63.2316663 140.973998,63.0786678 141.45,62.852 C141.926002,62.6253322 142.322665,62.3136686 142.64,61.917 C142.957335,61.5203314 143.116,61.0160031 143.116,60.404 C143.116,59.7466634 142.906335,59.214002 142.487,58.806 C142.067665,58.397998 141.518003,58.0580014 140.838,57.786 C140.157997,57.5139986 139.387338,57.276001 138.526,57.072 C137.664662,56.867999 136.792004,56.6413346 135.908,56.392 C135.001329,56.1653322 134.117338,55.8876683 133.256,55.559 C132.394662,55.2303317 131.624003,54.8053359 130.944,54.284 C130.263997,53.7626641 129.714335,53.1110039 129.295,52.329 C128.875665,51.5469961 128.666,50.6006722 128.666,49.49 C128.666,48.2433271 128.932331,47.1610046 129.465,46.243 C129.997669,45.3249954 130.694662,44.5600031 131.556,43.948 C132.417338,43.3359969 133.391995,42.8826681 134.48,42.588 C135.568005,42.2933319 136.655995,42.146 137.744,42.146 C139.01334,42.146 140.231661,42.2876652 141.399,42.571 C142.566339,42.8543347 143.603329,43.3133302 144.51,43.948 C145.416671,44.5826698 146.136331,45.3929951 146.669,46.379 C147.201669,47.3650049 147.468,48.5606596 147.468,49.966 L142.3,49.966 C142.254666,49.240663 142.101668,48.6400024 141.841,48.164 C141.580332,47.6879976 141.234669,47.3140014 140.804,47.042 C140.373331,46.7699986 139.880336,46.5773339 139.325,46.464 C138.769664,46.3506661 138.163337,46.294 137.506,46.294 C137.075331,46.294 136.644669,46.3393329 136.214,46.43 C135.783331,46.5206671 135.392335,46.6793322 135.041,46.906 C134.689665,47.1326678 134.400668,47.4159983 134.174,47.756 C133.947332,48.0960017 133.834,48.5266641 133.834,49.048 C133.834,49.5240024 133.924666,49.9093319 134.106,50.204 C134.287334,50.4986681 134.644331,50.7706654 135.177,51.02 C135.709669,51.2693346 136.446329,51.5186654 137.387,51.768 C138.327671,52.0173346 139.557326,52.3346647 141.076,52.72 C141.529336,52.8106671 142.158329,52.9749988 142.963,53.213 C143.767671,53.4510012 144.566663,53.8306641 145.36,54.352 C146.153337,54.8733359 146.838997,55.570329 147.417,56.443 C147.995003,57.315671 148.284,58.4319932 148.284,59.792 C148.284,60.9026722 148.068669,61.9339952 147.638,62.886 C147.207331,63.8380048 146.567004,64.6596632 145.717,65.351 C144.866996,66.0423368 143.813006,66.5806647 142.555,66.966 C141.296994,67.3513353 139.840675,67.544 138.186,67.544 C136.84866,67.544 135.551006,67.3796683 134.293,67.051 C133.034994,66.7223317 131.924338,66.2066702 130.961,65.504 C129.997662,64.8013298 129.23267,63.9060054 128.666,62.818 C128.099331,61.7299946 127.827333,60.4380075 127.85,58.942 L133.018,58.942 Z M170.63,50.884 C170.539333,50.2719969 170.335335,49.7110025 170.018,49.201 C169.700665,48.6909974 169.304002,48.2433353 168.828,47.858 C168.351998,47.4726647 167.81367,47.1723344 167.213,46.957 C166.61233,46.7416656 165.983337,46.634 165.326,46.634 C164.124661,46.634 163.104671,46.866331 162.266,47.331 C161.427329,47.795669 160.747336,48.4189961 160.226,49.201 C159.704664,49.9830039 159.325001,50.8726617 159.087,51.87 C158.848999,52.8673383 158.73,53.8986613 158.73,54.964 C158.73,55.9840051 158.848999,56.9756619 159.087,57.939 C159.325001,58.9023381 159.704664,59.7693295 160.226,60.54 C160.747336,61.3106705 161.427329,61.928331 162.266,62.393 C163.104671,62.857669 164.124661,63.09 165.326,63.09 C166.958008,63.09 168.232995,62.5913383 169.151,61.594 C170.069005,60.5966617 170.629999,59.2820082 170.834,57.65 L176.002,57.65 C175.865999,59.1686743 175.514669,60.5399939 174.948,61.764 C174.381331,62.9880061 173.633338,64.0306624 172.704,64.892 C171.774662,65.7533376 170.686673,66.4106644 169.44,66.864 C168.193327,67.3173356 166.822007,67.544 165.326,67.544 C163.467324,67.544 161.795674,67.2210032 160.311,66.575 C158.826326,65.9289968 157.574005,65.039339 156.554,63.906 C155.533995,62.772661 154.752003,61.4410077 154.208,59.911 C153.663997,58.3809923 153.392,56.7320088 153.392,54.964 C153.392,53.1506576 153.663997,51.4676744 154.208,49.915 C154.752003,48.3623256 155.533995,47.0080058 156.554,45.852 C157.574005,44.6959942 158.826326,43.7893366 160.311,43.132 C161.795674,42.4746634 163.467324,42.146 165.326,42.146 C166.66334,42.146 167.926994,42.3386647 169.117,42.724 C170.307006,43.1093353 171.372329,43.6703296 172.313,44.407 C173.253671,45.1436703 174.029997,46.0559946 174.642,47.144 C175.254003,48.2320054 175.639333,49.4786596 175.798,50.884 L170.63,50.884 Z M182.334,61.764 L187.672,61.764 L187.672,67 L182.334,67 L182.334,61.764 Z M198.866,58.228 C198.866,58.9306702 198.933999,59.61633 199.07,60.285 C199.206001,60.95367 199.438332,61.5543307 199.767,62.087 C200.095668,62.6196693 200.531997,63.0446651 201.076,63.362 C201.620003,63.6793349 202.299996,63.838 203.116,63.838 C203.932004,63.838 204.617664,63.6793349 205.173,63.362 C205.728336,63.0446651 206.170332,62.6196693 206.499,62.087 C206.827668,61.5543307 207.059999,60.95367 207.196,60.285 C207.332001,59.61633 207.4,58.9306702 207.4,58.228 C207.4,57.5253298 207.332001,56.8340034 207.196,56.154 C207.059999,55.4739966 206.827668,54.8733359 206.499,54.352 C206.170332,53.8306641 205.728336,53.4056683 205.173,53.077 C204.617664,52.7483317 203.932004,52.584 203.116,52.584 C202.299996,52.584 201.620003,52.7483317 201.076,53.077 C200.531997,53.4056683 200.095668,53.8306641 199.767,54.352 C199.438332,54.8733359 199.206001,55.4739966 199.07,56.154 C198.933999,56.8340034 198.866,57.5253298 198.866,58.228 Z M194.038,58.228 C194.038,56.8226596 194.253331,55.5476724 194.684,54.403 C195.114669,53.2583276 195.726663,52.2836707 196.52,51.479 C197.313337,50.6743293 198.265328,50.0510022 199.376,49.609 C200.486672,49.1669978 201.733326,48.946 203.116,48.946 C204.498674,48.946 205.750994,49.1669978 206.873,49.609 C207.995006,50.0510022 208.952663,50.6743293 209.746,51.479 C210.539337,52.2836707 211.151331,53.2583276 211.582,54.403 C212.012669,55.5476724 212.228,56.8226596 212.228,58.228 C212.228,59.6333404 212.012669,60.902661 211.582,62.036 C211.151331,63.169339 210.539337,64.1383293 209.746,64.943 C208.952663,65.7476707 207.995006,66.3653312 206.873,66.796 C205.750994,67.2266688 204.498674,67.442 203.116,67.442 C201.733326,67.442 200.486672,67.2266688 199.376,66.796 C198.265328,66.3653312 197.313337,65.7476707 196.52,64.943 C195.726663,64.1383293 195.114669,63.169339 194.684,62.036 C194.253331,60.902661 194.038,59.6333404 194.038,58.228 Z M218.356,49.422 L222.946,49.422 L222.946,52.686 L223.014,52.686 C223.240668,52.1419973 223.546665,51.637669 223.932,51.173 C224.317335,50.708331 224.759331,50.3116683 225.258,49.983 C225.756669,49.6543317 226.28933,49.3993342 226.856,49.218 C227.422669,49.0366658 228.011997,48.946 228.624,48.946 C228.941335,48.946 229.292665,49.0026661 229.678,49.116 L229.678,53.604 C229.451332,53.5586664 229.179335,53.5190002 228.862,53.485 C228.544665,53.4509998 228.238668,53.434 227.944,53.434 C227.059996,53.434 226.312003,53.5813319 225.7,53.876 C225.087997,54.1706681 224.595002,54.5729975 224.221,55.083 C223.846998,55.5930025 223.580667,56.1879966 223.422,56.868 C223.263333,57.5480034 223.184,58.2846627 223.184,59.078 L223.184,67 L218.356,67 L218.356,49.422 Z M241.824,62.852 C242.504003,62.852 243.104664,62.7160014 243.626,62.444 C244.147336,62.1719986 244.577998,61.8093356 244.918,61.356 C245.258002,60.9026644 245.512999,60.3870029 245.683,59.809 C245.853001,59.2309971 245.938,58.6246698 245.938,57.99 C245.938,57.264663 245.870001,56.5790032 245.734,55.933 C245.597999,55.2869968 245.371335,54.7146692 245.054,54.216 C244.736665,53.7173308 244.317336,53.3206681 243.796,53.026 C243.274664,52.7313319 242.617337,52.584 241.824,52.584 C241.143997,52.584 240.560336,52.7199986 240.073,52.992 C239.585664,53.2640014 239.177668,53.632331 238.849,54.097 C238.520332,54.561669 238.282334,55.0943303 238.135,55.695 C237.987666,56.2956697 237.914,56.9246634 237.914,57.582 C237.914,58.2166698 237.976333,58.8456635 238.101,59.469 C238.225667,60.0923364 238.440998,60.6533308 238.747,61.152 C239.053002,61.6506692 239.455331,62.0586651 239.954,62.376 C240.452669,62.6933349 241.075996,62.852 241.824,62.852 Z M250.528,65.878 C250.528,66.5806702 250.431668,67.3853288 250.239,68.292 C250.046332,69.1986712 249.63267,70.0429961 248.998,70.825 C248.36333,71.6070039 247.445339,72.2699973 246.244,72.814 C245.042661,73.3580027 243.433343,73.63 241.416,73.63 C240.554662,73.63 239.676338,73.5223344 238.781,73.307 C237.885662,73.0916656 237.06967,72.7573356 236.333,72.304 C235.59633,71.8506644 234.984336,71.2670036 234.497,70.553 C234.009664,69.8389964 233.732,68.9833383 233.664,67.986 L238.458,67.986 C238.684668,68.8926712 239.126663,69.5216649 239.784,69.873 C240.441337,70.2243351 241.200662,70.4 242.062,70.4 C243.422007,70.4 244.413664,69.9920041 245.037,69.176 C245.660336,68.3599959 245.960667,67.3286729 245.938,66.082 L245.938,63.77 L245.87,63.77 C245.348664,64.699338 244.606338,65.3849978 243.643,65.827 C242.679662,66.2690022 241.665339,66.49 240.6,66.49 C239.285327,66.49 238.152005,66.257669 237.2,65.793 C236.247995,65.328331 235.466003,64.6936707 234.854,63.889 C234.241997,63.0843293 233.794335,62.143672 233.511,61.067 C233.227665,59.990328 233.086,58.8513393 233.086,57.65 C233.086,56.516661 233.250332,55.4230053 233.579,54.369 C233.907668,53.3149947 234.38933,52.3856707 235.024,51.581 C235.65867,50.7763293 236.446329,50.1360024 237.387,49.66 C238.327671,49.1839976 239.409994,48.946 240.634,48.946 C241.790006,48.946 242.804329,49.1613312 243.677,49.592 C244.549671,50.0226688 245.280664,50.7479949 245.87,51.768 L245.938,51.768 L245.938,49.422 L250.528,49.422 L250.528,65.878 Z" id="PSASC.org"></path>
        </g>
    </g>
</svg>